<svg xmlns="http://www.w3.org/2000/svg" width="147" height="120" viewBox="0 0 147 120">
    <path d="M68.393 23.796l1.648 2.182c.075.09.183.163.313.134.082-.02.127-.093.138-.172-.023-.374-.048-.747-.072-1.12l-.006-.961c0-.805.2-1.658.362-2.406l.172-.87v-.053l.392-2.1h.035l.78.717c.21.197 1.066 1.059 1.272 1.103l.014.002c.093.003 1.888-1.588 2.063-1.787l.065.058c.162.805.324 1.61.488 2.416l.087.499c.197 1.133.43 2.309.328 3.56l-.077.64c0 .244.007.601.339.458.275-.12.471-.55.65-.773l1.61-2.07.106-.163c.393-.65-.249-.593-.612-.883-.602-.483-.737-1.823-.94-2.549-.784-2.794-1.385-5.671-2.02-8.53-.145-.655-.265-1.997-.639-2.484-.299-.387-2.43-.194-2.566-.183-.435.11-.627 1.31-.663 1.46-.065.308-.195.979-.195.979-.024.1-.066.332-.072.338-.006.006-.155.67-.178.783.007.006-.332 1.713-.463 1.976.006.018-.112.527-.178.765 0 0-.118.564-.177.82-.006.005-.102.444-.144.658-.1.386-.2.771-.302 1.157 0 0-.38 1.602-.552 2.314-.03.089-.755 2.4-1.063 2.585l-.52.248c-.067.065-.096.163-.072.26.091.365.424.69.649.992zm3.623-9.194l.285-1.566.534-3.062h.018l.374-.036.836.018v.018l.997 5.411.099.607c.037.233.08.455-.016.674-.12.273-1.472 1.816-1.742 1.745-.226-.06-.446-.39-.627-.544-.409-.348-.96-.884-1.051-1.399-.07-.391.199-1.459.293-1.866zm19.795 17.922c-.344.002-6.052.04-6.604.04-.286 0-.692.216-.555.563.118.306.556.429.797.604.258.189.468.453.634.714.801 1.277.636 3.221.636 4.871l-.017 1.4-.071 1.852h.017l-.035.018v.017l-.016.517c-.03.934-.135 1.85-.208 2.759l-.168 1.442-.142 1.21c-.034.238-.07.475-.103.713l-.236 1.281c-.022.16-.047.32-.07.48h.017c-.01.007-.024.012-.035.018l.018.018-.232 1.015.018.018-.018.018-.017.017-.143.659-.106.356-.375 1.442-.035.017-.189.645c-.164.502-.371.988-.553 1.477-.983 2.655-2.81 5.043-5.185 6.8-1.657 1.226-4.35 1.359-4.576 1.385-1.064 0-2.009-.027-2.917-.329-2.197-.733-4.094-2.584-5.389-4.525-4.589-6.885-5.951-15.7-6.216-24.73l-.016-3.49c.035-.742.07-1.483.103-2.224.041-.67.264-3.57.322-4.188.04-.296.28-2.223.379-2.868.154-1.006.584-3.206.605-3.308l.376-1.655c.08-.296.348-1.314.403-1.528.288-.955.571-1.902.892-2.83l.872-2.208c.347-.925.855-1.793 1.323-2.66 1.737-3.226 4.832-6.91 9.084-6.43 5.725.645 8.873 7.24 10.296 11.98.332 1.106.65 2.259.86 3.412.113.612.297 2.41.706 2.771.089.079.225.129.335.054l.045-.039c.022-.025.042-.052.063-.078l.037-.072c.193-.415.152-1.016.152-1.515l.004-1.852.017-9.47V4.883c0-.454.043-.973-.082-1.367l-.075-.174c-.81-1.316-1.611 2.867-2.649 2.554-.244-.074-.424-.376-.592-.555L81.954 4c-1.9-1.9-4.136-3.305-6.787-3.766-10.283-1.79-15.187 7.18-16.496 9.442-.556.96-1 1.975-1.473 2.976-.36.757-.678 1.583-.933 2.395-.162.475-.478 1.506-.484 1.512-.053.155-.581 2.012-.658 2.296-.028.154-.785 3.942-.837 4.237l-.25 1.745c-.023.22-.543 6.44-.514 8.224.047 3.092.186 6.072.559 8.976.139 1.087.284 2.174.526 3.218.056.284.55 2.603.801 3.453.397 1.339.833 2.634 1.295 3.928.282.79.626 1.545.99 2.292 1.521 3.123 3.406 6.103 6.248 8.46.651.539 8.17 6.248 15.1 2.157 1.845-1.09 3.603-2.374 5.078-4.06.497-.567.903-1.194 1.342-1.79.402-.548.751-1.16 1.079-1.75.226-.407.441-.89.836-1.195.35-.27.72-.108.959.223.26.363.384.845.544 1.258l1.127 3.065c.142.404.264.882.524 1.23.188.25.52.533.834.278l.054-.054c.11-.124.156-.29.176-.46.09-.823.01-1.701.036-2.544l.004-5.075c.013-4.398.024-8.797.038-13.195l.008-2.793c.022-1.161-.037-2.951.487-3.824.004-.022.007-.045.009-.068.106-.238.236-.452.407-.657.136-.164.283-.313.456-.432.243-.17.675-.293.754-.626.164-.69-1.527-.546-1.982-.553zM68.42 51.771h.017l.058-10.283.06-.079.033-.02c.58-.29.771-.125 1.233.24 1.765 1.39 1.235 4.533.716 6.457l-.444 2.172.018.018-.036.017v.018l-.072.713c-.274 1.61.097 3.532 1.476 4.294.194.107.47.298.724.252.383-.068.09-.597-.029-.774-1.144-1.715-.965-4.134-.716-6.301l.308-2.118.086-.708c.309-1.702-.6-4.004-2.133-4.632v-.017h-.018V41c.192 0 .881-.708 1.025-.883 2.39-2.948.925-6.787-1.403-9.19-.466-.482-1.098-1.201-1.776-1.266l-.178.231c-.005.054-.012.108-.018.16l-.02 12.835L67.317 47c-.01.66-.08 1.429.025 2.064.154.944.586 1.92 1.079 2.707zm.052-11.375l.005-.874.03-7.116c.014-.09.067-.15.126-.216.417.038.718.322.981.622.975 1.114 1.216 2.543 1.14 4.148-.026.569-.055 1.117-.216 1.62l.017.018c-.005.007-.011.012-.017.018l-.079.21c-.207.567-.544.962-1.083 1.244l-.12.077c-.187 0-.553.174-.695.285h-.089v-.036zm-4.396 8.153c.163.752.372 1.489.575 2.224 1 3.624 3.475 10.46 7.598 11.548.526.139 1.238.2 1.81.085l.786-.203c.426 0 1.596-.864 1.946-1.172 3.163-2.792 4.577-7.334 5.68-11.242l.561-2.398.216-1.12.266-1.371.232-1.744.144-1.017.278-2.776c.209-2.597.244-5.265.202-7.956-.016-1.02.001-2.079-.143-3.062l-.107-1.157-.02-.356c-.078-.978-.121-2.025-.336-2.956 0-.624-.19-1.484-.31-2.089-.219-1.088-.404-2.17-.644-3.239-.871-3.87-2.23-8.195-4.727-11.227-.673-.817-1.476-1.604-2.387-2.078-.505-.264-1.039-.479-1.634-.554-.636-.147-1.736.07-2.532.437-2.097.965-3.936 3.816-4.802 5.809l-.16.34c-.464.93-.892 1.966-1.193 2.971l-.089.267c-.26.89-.972 3.323-1.05 3.614l-.36 1.619-.459 2.386c.006.018-.285 1.958-.32 2.136l-.053.445-.321 2.884-.018.285-.053.641-.104 2.136c-.064 1.358-.078 2.757-.056 4.165.05 3.183.316 6.254.743 9.24.124.87.279 1.7.433 2.544.098.536.148 1.15.354 1.639v.035c.02.09.037.178.054.267zm16.947-23.266c.282.055.383.274.404.552.23 2.93.254 5.92.254 8.936 0 .792-.046 1.556-.069 2.314-.02.291-.037.581-.056.872 0 1.243-.098 2.528-.258 3.742l-.151 1.296.01.071c-.032.25-.067.498-.099.748l-.16 1.14-.071.747v.018l-.072.427v.018l-.017.017h-.018l-.267 1.55c0 .42-.144.833-.23 1.228-.168.772-.327 1.547-.535 2.296l.018.017c-.006.007-.013.012-.018.019l-.062.229c-.165.677-.388 1.339-.597 1.996l.018.017-.018.018-.018.018-.285.855-.056.16c-.2.48-.338.988-.585 1.441l.018.019-.313.644c-.78 1.805-2.014 3.6-3.995 4.215v-7.245l.036-14.134.01-4.292.028-1.791c.022-.091 1.448-1.79 1.546-1.839l.037-.056 4.229-4.881c.272-.346.916-1.27 1.32-1.376l.022-.006zm-14.882-4.344l.187-1.266c.14-.729.28-1.458.418-2.187l.066-.316.439-1.89c.628-2.472 1.537-5.338 3.006-7.37.41-.571.86-1.177 1.463-1.594.293-.203.57-.35.9-.476.178-.052.855-.354 1.938.083.618.25 1.17.738 1.618 1.263 1.654 1.938 2.427 4.312 3.201 6.692l.56 2.113.195.854c.029.145.056.289.083.433l.485 2.558.18 1.104v.07l.055.41c.146 1.154-.469 1.601-1.066 2.425l-.484.619-5.928 7.708-.099-.064-4.995-6.646-1.575-2.06c-.22-.299-.494-.585-.65-.914-.182-.38-.192-1.16.003-1.549zm-.77 7.28l.108-1.709.08-.836c.047-.186.167-.281.314-.391.383.024.496.314.748.552l5.003 5.945-.018.018.437.49.92 1.14.005 5.1-.045 22.34h-.018v.017h-.017v.018c-.373 0-1.054-.43-1.342-.654-1.228-.955-1.978-2.328-2.567-3.669-1.099-2.496-1.818-5.143-2.394-7.906l-.355-2.065-.21-1.23-.27-2.17-.286-2.795.018-.232-.135-1.638-.11-2.635c-.09-2.564.013-5.177.133-7.69zm14.307 8.67c-.032-.528-.066-1.056-.097-1.584l-.124-1.192c-.06-.333-.12-.665-.178-.998 0-.622-.43-1.941-.918-2.306-.137-.103-.27-.127-.454-.132-.46.322-.816.799-1.153 1.25-.464.591-.93 1.183-1.394 1.776-.122.179-.165.382-.265.57l.018.017-.083.712-.006 1.353L75 49.545l-.012 4.006c-.01.597-.094 1.355.07 1.893.035.056.07.111.103.167.14.078.548-.344.653-.453 1.51-1.558 2.382-3.615 2.925-5.668l.352-1.481.133-.67.09-.552.185-1.301.163-1.762c.136-1.413.079-2.896.079-4.324 0-.859-.014-1.694-.063-2.511zm-.877 6.231c-.05.629-.033 1.648-.235 2.19l-.16 1.139-.072.267-.089.391-.209.963c-.214.872-.512 1.695-.837 2.51-.078.194-.538 1.256-.882.945l-.099-.2c-.133-.51-.035-1.217-.035-1.766l.012-3.467.038-12.055c.082-.464.45-.693.803-.94.42.013.67.215.866.556.407.702.526 1.614.652 2.452.318 2.118.424 4.78.247 7.015z"/>
    <path fill-rule="evenodd" d="M37.54 79.362c6.348 0 10.8 3.35 10.8 7.544 0 4.197-4.334 7.544-10.8 7.544-6.436 0-10.767-3.347-10.767-7.544 0-4.195 4.41-7.544 10.767-7.544zM19.494 94.101c-2.627.005-5.11.35-8.461.35C4.652 94.45 0 91.283 0 87.016c0-4.549 4.996-7.655 11.41-7.655 3.177 0 6.114.895 7.873 2.62l-1.615.914c-1.244-1.396-2.688-2.574-5.404-2.574-5.024 0-7.142 2.5-7.142 6.695 0 3.567 1.924 6.474 6.795 6.474 1.326 0 2.766-.606 3.183-1.518l.006-4.759h-3.47V85.97h7.858v8.13zm88.438-7.31c4.466 0 6.021-.932 6.021-3.154 0-1.662-1.165-2.925-5.91-2.925h-3.774v6.08h3.663zm-8.361 7.259V79.763l12.711.002c4.875.001 6.593 2.04 6.593 4.183 0 2.414-2.492 3.492-6.514 3.76l-.144.01 6.687 6.332h-5.883l-6.337-6.219h-2.415v6.219h-4.698zM80.705 83.446l-4.394 6.773h8.544l-4.15-6.773zM92.699 94.05h-5.507l-1.604-2.612-10.053.006-1.665 2.606h-1.846l9.59-14.51h1.76l9.325 14.51zM68.983 79.763h2l-7.211 7.753v6.534h-4.93v-6.254l-7.535-8.033h5.87l5.815 6.426 5.99-6.426zm62.863 13.3h2.115c5.833 0 7.876-2.24 7.876-6.035 0-3.663-1.941-6.303-7.628-6.303h-2.363v12.337zm-4.922-13.3h8.011c8.777 0 11.961 2.78 11.961 7.222 0 4.549-3.198 7.065-11.009 7.065h-8.963V79.763zM37.54 93.49c4.538 0 5.768-3.771 5.768-6.585 0-2.815-1.493-6.584-5.768-6.584-4.11 0-5.735 3.769-5.735 6.584 0 2.812 1.188 6.585 5.735 6.585z" clip-rule="evenodd"/>
    <path d="M52.435 114.735v2.285h2.958c.976 0 1.392-.462 1.392-1.158 0-.628-.439-1.127-1.392-1.127h-2.958zm-.515-.484h3.473c1.256 0 1.922.711 1.922 1.611 0 .931-.628 1.642-1.922 1.642h-2.958v2.421h-.515v-5.674zM66.63 117.874l-1.611-3.253-1.612 3.253h3.223zm-1.982-3.623h.757l2.829 5.674h-.59l-.772-1.566h-3.707l-.771 1.566h-.576l2.83-5.674zM73.782 114.735v2.209h2.912c.976 0 1.392-.446 1.392-1.119 0-.606-.439-1.09-1.392-1.09h-2.912zm-.515-.484h3.427c1.256 0 1.922.696 1.922 1.574 0 .907-.628 1.604-1.906 1.604l2.23 2.496h-.68l-2.216-2.496h-2.262v2.496h-.515v-5.674zM84.111 114.251h.515v5.674h-.515v-5.674zM94.462 118.389c0-1.838-4.441-.249-4.441-2.633 0-.96.81-1.581 2.224-1.581.9 0 1.876.303 2.618.855l-.302.409c-.69-.485-1.46-.779-2.316-.779-1.082 0-1.71.4-1.71 1.074 0 1.815 4.442.257 4.442 2.632 0 1.006-.84 1.634-2.399 1.634-.945 0-1.99-.287-2.769-.854l.303-.409c.726.5 1.559.78 2.466.78 1.225 0 1.884-.432 1.884-1.128zM22.205 105.629v-3.826h-.022l-2.322 2.987-2.326-2.987h-.018v3.826h-.376v-4.191h.585l2.135 2.796 2.142-2.796h.579v4.191h-.377zM26.971 101.803h-.052l-1.262 2.373h2.57l-1.256-2.373zm2.02 3.826l-.573-1.088h-2.952l-.584 1.088h-.434l2.216-4.191h.556l2.205 4.191h-.434zM31.292 105.629v-4.191h.376v3.827h3.236v.364h-3.612zM36.702 105.629v-4.191h.376v3.827h3.235v.364h-3.611zM42.11 105.629v-4.191h3.908v.365h-3.53v1.424h2.453v.365h-2.454v1.673h3.693v.364h-4.07zM50.146 101.803v3.826h-.376v-3.826h-2.003v-.365h4.381v.365h-2.002zM53.946 105.629v-4.191h.376v4.191h-.376zM56.937 105.629v-4.191h3.907v.365h-3.53v1.424h2.454v.365h-2.454v1.673h3.692v.364h-4.069zM67.139 102.671c0-.584-.335-.868-1.013-.868H63.51v1.743h2.755c.556 0 .874-.319.874-.875zm-.029 2.958l-1.314-1.718H63.51v1.718h-.376v-4.191h3.16c.776 0 1.262.487 1.262 1.251 0 .718-.451 1.163-1.262 1.222l1.273 1.718h-.457zM76.5 104.761c.284-.312.446-.735.446-1.198 0-1.048-.695-1.76-1.725-1.76h-2.176v3.462h2.287c.462 0 .862-.174 1.168-.504zm.88-1.181c0 .579-.208 1.089-.596 1.471-.382.376-.903.578-1.482.578h-2.634v-4.191h2.496c1.371 0 2.216.823 2.216 2.142zM79.75 105.629v-4.191h3.908v.365h-3.531v1.424h2.454v.365h-2.454v1.673h3.693v.364h-4.07zM89.952 102.671c0-.584-.335-.868-1.013-.868h-2.616v1.743h2.756c.555 0 .873-.319.873-.875zm.417.018c0 .747-.515 1.222-1.36 1.222h-2.686v1.718h-.376v-4.191h3.16c.776 0 1.262.481 1.262 1.251zM94.603 105.751c-1.365 0-2.216-.603-2.216-1.43v-2.883h.376v2.738c0 .799.62 1.21 1.84 1.21 1.216 0 1.83-.411 1.83-1.21v-2.738h.375v2.883c0 .834-.838 1.43-2.205 1.43zM99.422 105.629v-4.191h.376v4.191h-.376zM104.288 101.688c-1.047 0-1.608.301-1.608.81 0 .538.538.677 1.597.724.729.028 1.303.045 1.719.225.417.18.613.481.613.932 0 .845-.758 1.348-2.158 1.348-.944 0-1.719-.214-2.304-.618l.22-.319c.625.399 1.268.585 2.002.585 1.17 0 1.801-.371 1.801-.973 0-.596-.556-.769-1.702-.822-.7-.029-1.233-.052-1.615-.197-.417-.156-.613-.422-.613-.839 0-.752.717-1.21 2.025-1.21.868 0 1.54.151 2.032.481l-.266.289c-.539-.295-1.1-.416-1.743-.416zM111.561 105.629v-3.837l-.672.307v-.29c.232-.093.458-.214.672-.371h.375v4.191h-.375zM116.31 101.733c-.891 0-1.366.284-1.366.765 0 .498.492.816 1.372.816.892 0 1.378-.313 1.378-.816 0-.481-.481-.765-1.384-.765zm0 1.928c-1.071 0-1.638.318-1.638.84 0 .503.591.839 1.638.839 1.06 0 1.615-.313 1.615-.822 0-.544-.555-.857-1.615-.857zm2.067.886c0 .712-.718 1.152-2.061 1.152s-2.06-.434-2.06-1.146c0-.562.439-.949 1.296-1.089-.648-.115-1.007-.48-1.007-.966 0-.678.643-1.117 1.765-1.117 1.123 0 1.772.446 1.772 1.117 0 .486-.342.822-1.002.966.857.145 1.297.522 1.297 1.083zM122.228 102.967c1.169 0 1.933.601 1.933 1.378 0 .803-.706 1.354-1.858 1.354-.909 0-1.592-.237-2.066-.718l.353-.191c.527.37 1.054.55 1.65.55.943 0 1.505-.429 1.505-1.002 0-.596-.591-1.018-1.546-1.018-.55 0-1.048.162-1.545.492l-.388-.319.607-2.055h2.981v.365h-2.725l-.464 1.58c.492-.283.99-.416 1.563-.416zM129.756 104.472c0 .787-.712 1.227-2.072 1.227-.839 0-1.43-.197-1.927-.753l.231-.295c.429.492.955.683 1.69.683 1.1 0 1.65-.301 1.65-.908 0-.545-.614-.788-1.864-.788h-.214v-.33c.116.006.231.006.341.006 1.037 0 1.546-.254 1.546-.804 0-.481-.463-.777-1.291-.777-.562 0-1.065.157-1.562.493l-.221-.278c.591-.376 1.164-.567 1.765-.567 1.112 0 1.748.428 1.748 1.105 0 .475-.283.793-.85.961.672.121 1.03.492 1.03 1.025z"/>
</svg>
