<?xml version="1.0" standalone="no"?>
<!DOCTYPE svg PUBLIC "-//W3C//DTD SVG 20010904//EN"
 "http://www.w3.org/TR/2001/REC-SVG-20010904/DTD/svg10.dtd">
<svg version="1.0" xmlns="http://www.w3.org/2000/svg"
 width="501.000000pt" height="130.000000pt" viewBox="0 0 501.000000 130.000000"
 preserveAspectRatio="xMidYMid meet">

<g transform="translate(0.000000,130.000000) scale(0.100000,-0.100000)"
fill="#000000" stroke="none">
<path d="M192 658 l3 -343 203 -3 202 -2 0 40 0 40 -165 0 -165 0 0 305 0 305
-40 0 -40 0 2 -342z"/>
<path d="M840 655 l0 -345 195 0 195 0 0 40 0 40 -155 0 -155 0 0 130 0 129
118 3 117 3 0 35 0 35 -117 3 -118 3 0 99 0 100 155 0 155 0 0 35 0 35 -195 0
-195 0 0 -345z"/>
<path d="M1510 655 l0 -345 40 0 40 0 1 253 c0 171 3 247 10 237 6 -8 56 -89
112 -180 83 -134 107 -166 127 -168 22 -3 37 16 135 176 l110 179 5 -246 5
-246 38 -3 37 -3 0 345 0 346 -27 0 c-26 0 -40 -20 -161 -220 -74 -121 -137
-220 -140 -220 -4 0 -32 42 -63 93 -219 361 -209 347 -240 347 l-29 0 0 -345z"/>
<path d="M2667 988 c-3 -7 -62 -148 -132 -313 -70 -165 -134 -315 -142 -333
l-14 -33 41 3 41 3 39 90 38 90 162 0 162 0 38 -90 38 -90 42 -3 c32 -3 41 0
37 10 -3 7 -69 163 -147 346 -138 323 -143 332 -170 332 -15 0 -30 -6 -33 -12z
m100 -260 l60 -143 -120 -3 c-66 -1 -122 0 -125 2 -6 7 109 286 118 286 4 0
34 -64 67 -142z"/>
<path d="M3242 658 l3 -343 38 -3 37 -3 0 345 0 346 -40 0 -40 0 2 -342z"/>
<path d="M3630 655 l0 -345 40 0 40 0 0 170 0 170 53 0 52 -1 115 -155 c63
-85 122 -162 131 -170 11 -10 32 -14 58 -12 l41 3 -125 167 c-69 92 -125 169
-125 173 0 3 10 5 21 5 33 0 85 37 111 78 32 52 31 137 -3 187 -43 63 -83 75
-257 75 l-152 0 0 -345z m331 237 c32 -36 36 -69 14 -112 -23 -44 -43 -50
-159 -50 l-106 0 0 101 0 101 111 -4 111 -3 29 -33z"/>
<path d="M4380 655 l0 -345 198 2 197 3 0 35 0 35 -157 3 -158 3 0 129 0 129
118 3 117 3 0 35 0 35 -117 3 -118 3 0 99 0 99 153 3 152 3 3 33 3 32 -195 0
-196 0 0 -345z"/>
</g>
</svg>
