<?xml version="1.0" standalone="no"?>
<!DOCTYPE svg PUBLIC "-//W3C//DTD SVG 20010904//EN"
 "http://www.w3.org/TR/2001/REC-SVG-20010904/DTD/svg10.dtd">
<svg version="1.0" xmlns="http://www.w3.org/2000/svg"
 width="174.000000pt" height="210.000000pt" viewBox="0 0 174.000000 210.000000"
 preserveAspectRatio="xMidYMid meet">

<g transform="translate(0.000000,210.000000) scale(0.100000,-0.100000)"
fill="#000000" stroke="none">
<path d="M431 2058 c7 -13 23 -72 35 -133 l22 -110 -37 -35 c-92 -85 -121
-174 -96 -291 13 -64 20 -76 94 -161 46 -53 81 -102 81 -114 0 -36 -68 -371
-80 -393 -10 -20 -9 -21 53 -21 l64 0 -5 29 c-4 29 45 270 58 284 4 4 23 -12
43 -36 l36 -44 -35 -169 c-19 -93 -39 -192 -45 -221 l-10 -51 -47 -7 c-95 -12
-221 53 -292 152 l-39 55 -15 -52 c-9 -29 -13 -57 -10 -62 4 -6 34 -28 67 -49
79 -51 170 -79 258 -79 67 0 69 -1 64 -23 -3 -12 -16 -76 -29 -142 -14 -66
-32 -139 -40 -162 l-15 -43 325 0 325 0 19 46 c22 50 25 68 11 60 -26 -16
-266 -48 -403 -53 -155 -6 -158 -6 -158 15 0 11 16 91 36 178 l36 157 53 48
c63 58 94 124 102 218 5 66 -14 168 -38 197 -8 10 30 204 77 388 l6 26 -72 0
-73 0 6 -42 c4 -27 -2 -82 -16 -148 l-23 -104 -37 49 c-21 27 -36 54 -34 59 2
6 12 45 23 86 16 64 34 98 122 230 58 85 107 157 109 160 3 3 20 -12 38 -32
17 -21 35 -38 38 -38 3 0 9 20 12 45 6 39 4 47 -19 67 l-26 23 58 77 c32 42
80 102 106 132 l48 56 -50 0 -50 0 -67 -107 c-90 -143 -81 -136 -135 -115 -32
12 -77 17 -155 17 l-109 0 -24 103 -23 102 -65 0 c-64 0 -65 0 -53 -22z m371
-234 c80 -26 80 -26 -24 -188 -54 -86 -95 -140 -99 -133 -13 24 -71 308 -66
321 11 29 103 29 189 0z m-264 -236 c32 -153 39 -208 25 -208 -5 0 -25 23 -46
52 -46 63 -72 145 -63 205 6 45 31 103 44 103 4 0 22 -69 40 -152z m255 -762
c0 -56 -28 -132 -58 -156 -17 -14 -18 -13 -12 9 3 13 16 70 29 127 24 111 41
119 41 20z"/>
</g>
</svg>
