<?xml version="1.0" encoding="utf-8"?>
<!-- Generator: Adobe Illustrator 13.0.0, SVG Export Plug-In . SVG Version: 6.00 Build 14948)  -->
<!DOCTYPE svg PUBLIC "-//W3C//DTD SVG 1.1//EN" "http://www.w3.org/Graphics/SVG/1.1/DTD/svg11.dtd">
<svg version="1.1" id="Layer_1" xmlns="http://www.w3.org/2000/svg" xmlns:xlink="http://www.w3.org/1999/xlink" x="0px" y="0px"
	 width="192.756px" height="58.756px" viewBox="0 0 192.756 58.756" enable-background="new 0 0 192.756 58.756"
	 xml:space="preserve">
<g>
	<polygon fill-rule="evenodd" clip-rule="evenodd" fill="none" points="0,0 192.756,0 192.756,58.756 0,58.756 0,0 	"/>
	<path fill-rule="evenodd" clip-rule="evenodd" d="M93.447,21.147h8.095c5.861-0.02,6.075-6.231,0.834-6.444
		c-0.194-0.02-0.232-0.408,0.155-0.446c3.785-0.039,4.581-5.707-2.445-5.746h-6.639V21.147L93.447,21.147L93.447,21.147z
		 M97.504,9.481h1.863c3.223,0.02,3.203,4.522-0.039,4.562h-1.824V9.481L97.504,9.481L97.504,9.481z M97.523,15.188h1.805
		c1.534,0,2.68,0.504,3.048,1.32c0.33,0.757,0.311,1.611,0.02,2.213c-0.388,0.815-1.514,1.339-3.067,1.339h-0.737
		c-0.368-0.02-1.009,0.058-1.067-0.583V15.188L97.523,15.188z M86.42,8.452h4.969V21.38H86.42v-0.815h1.184
		c0.505,0,0.835,0.058,0.835-0.815v-9.628c0-0.874-0.311-0.854-0.835-0.854H86.42V8.452L86.42,8.452z"/>
	<path fill-rule="evenodd" clip-rule="evenodd" d="M82.014,22.545h2.465l0.68,0.602v3.63h-1.941v-3.067h-0.776l-0.427-0.563V22.545
		L82.014,22.545z M95.233,22.545l-0.66,0.795v0.524h1.533c0.02-0.311,0.233-0.543,0.563-0.524h3.358v0.854h-1.922v0.718h1.922v1.01
		h-3.358c-0.311,0-0.543-0.175-0.563-0.524h-1.533v0.524l0.66,0.854h5.785c0.698,0,1.203-0.776,0.971-1.534
		c-0.233-0.737-0.369-0.737,0-1.378c0.388-0.621-0.253-1.32-0.971-1.32H95.233L95.233,22.545z M103.561,22.545h7.162v0.602h-5.513
		v0.776h3.63c2.543,0,2.523,2.795,0.039,2.814l-4.406,0.039l-0.912-0.543v-0.388h5.027c0.737,0,0.737-1.126,0-1.126h-5.027V22.545
		L103.561,22.545z M86.42,22.545h6.93v1.164l-2.912,3.067h-2.252v-0.543l2.582-2.524H86.42V22.545L86.42,22.545z"/>
	<path fill-rule="evenodd" clip-rule="evenodd" d="M8.504,30.135v0.932h1.514c0.757,0,1.281,0.641,1.281,1.281v13.568
		c0,0.621-0.33,1.223-1.281,1.223H8.504v1.164h14.5c8.444,0,8.755-8.967,1.184-9.277c-0.272-0.02-0.33-0.545,0.233-0.602
		c5.455-0.059,6.581-8.25-3.532-8.289H8.504L8.504,30.135L8.504,30.135z M111.402,34.074h9.783c3.882,0,7.279,0.078,7.26,3.98
		c-0.02,3.066-4.154,3.998-5.746,3.998h-4.231v4.289c0,0.777,0.932,1.301,1.825,1.301h0.893v0.641h-9.783v-0.641h1.417
		c0.66,0,1.32-0.602,1.32-1.301V36.287c0-0.697-0.485-1.318-1.32-1.318h-1.417V34.074L111.402,34.074L111.402,34.074z
		 M135.297,38.791l-1.824,3.766h4.193L135.297,38.791L135.297,38.791L135.297,38.791z M57.09,38.791l-1.844,3.766h4.193
		L57.09,38.791L57.09,38.791L57.09,38.791z M17.181,31.531h2.679c4.64,0.039,4.62,6.504-0.039,6.58l-2.64-0.018V31.531
		L17.181,31.531L17.181,31.531z M32.244,33.842h10.152v0.873h-1.611c-0.66,0-1.378-0.076-1.378,0.912v10.23
		c0,0.873,0.796,0.758,1.378,0.758h3.281c1.611,0,2.775-1.611,3.649-3.863l0.854,0.252l-0.854,5.299H32.244v-0.854H33.7
		c0.504,0,1.242-0.33,1.242-0.834V35.627c0-0.543-0.64-0.912-1.242-0.912h-1.456V33.842L32.244,33.842z M118.468,35.375v5.223h2.718
		c3.571,0,3.455-5.223,0-5.223H118.468L118.468,35.375z M148.012,33.822h9.822v0.738h-1.107c-0.737,0-1.514,0.445-1.514,1.281
		v10.715c0,0.814,0.544,0.854,1.514,0.854h1.107v0.893h-9.822V47.43h1.378c0.641,0,1.301-0.447,1.301-0.873V35.842
		c0-0.602-0.466-1.281-1.301-1.281h-1.378V33.822L148.012,33.822z M107.268,33.395l0.602,0.02l0.078,5.047l-0.758,0.098
		c-1.96-3.203-4.018-3.494-5.842-3.533c-8.347-0.193-6.794,18.83,6.541,9.279l-0.038,2.213c-2.854,1.475-5.378,1.746-7.571,1.746
		c-13.626-0.059-11.316-18.4,4.834-14.15C106.104,34.443,106.802,34.211,107.268,33.395L107.268,33.395z M159.387,29.707h8.075
		l11.646,9.92V31.57c0-0.756-0.621-1.184-1.611-1.184h-1.3v-0.68h8.055v0.68h-1.087c-1.087,0-1.649,0.389-1.649,1.184v16.732h-0.933
		L164.628,34.25v11.277c0,0.873,0.602,1.709,1.455,1.709h1.883v1.066h-8.813v-1.066h1.34c1.028,0,1.824-0.68,1.824-1.709v-13.51
		c0-0.777-1.009-1.203-1.824-1.203h-1.106V29.707L159.387,29.707z M69.377,33.725h6.328l9.143,7.766v-6.289
		c0-0.602-0.485-0.951-1.281-0.951h-1.009v-0.525h6.308v0.525h-0.854c-0.854,0-1.281,0.311-1.281,0.951v13.102h-0.738l-12.5-11.006
		v8.832c0,0.68,0.465,1.34,1.125,1.34h1.476v0.834h-6.911v-0.834h1.068c0.796,0,1.417-0.523,1.417-1.34V35.551
		c0-0.621-0.777-0.951-1.417-0.951h-0.874V33.725L69.377,33.725z M135.705,33.707h1.146l8.211,12.908
		c0.213,0.348,0.485,0.834,0.989,0.834h0.699v0.854h-9.278v-0.854h1.688c0.815,0,1.087-0.738,0.582-1.533l-1.301-2h-5.609l-1.203,2
		c-0.291,0.504,0.33,1.533,0.854,1.533h1.456v0.854h-6.386v-0.854h0.718c0.427,0,0.854-0.369,1.087-0.834L135.705,33.707
		L135.705,33.707z M57.498,33.707h1.126l8.211,12.908c0.213,0.348,0.485,0.834,0.99,0.834h0.699v0.854h-9.259v-0.854h1.669
		c0.815,0,1.087-0.738,0.582-1.533l-1.3-2h-5.61l-1.204,2c-0.291,0.504,0.33,1.533,0.854,1.533h1.476v0.854h-6.406v-0.854h0.738
		c0.407,0,0.834-0.369,1.067-0.834L57.498,33.707L57.498,33.707z M17.2,39.742h2.601c2.213,0,3.863,0.719,4.387,1.902
		c0.466,1.088,0.447,2.311,0.039,3.184c-0.563,1.166-2.174,1.922-4.426,1.922h-1.048c-0.543-0.039-1.475,0.078-1.553-0.834V39.742
		L17.2,39.742z"/>
</g>
</svg>
