<?xml version="1.0" encoding="utf-8"?>
<!-- Generator: Adobe Illustrator 19.2.1, SVG Export Plug-In . SVG Version: 6.00 Build 0)  -->
<svg version="1.1" id="layer" xmlns="http://www.w3.org/2000/svg" xmlns:xlink="http://www.w3.org/1999/xlink" x="0px" y="0px"
	 viewBox="0 0 652 652" style="enable-background:new 0 0 652 652;" xml:space="preserve">
<style type="text/css">
	.st0{fill:#0B2238;}
</style>
<g>
	<path class="st0" d="M593.2,71.1l-1.9,5.1L550.5,124c0.6,1.4,1,2.9,1.3,4.4c1.9,10.2-3.9,20-12.9,21.9c-4.9,1-9,0-12.8-3.4
		L391.2,287.2c1.4,3,2.3,5.8,3,9.2c3.6,17.5-5.9,34.2-21.3,37.5c-15.4,3.2-30.8-8.3-34.4-25.8c-1.4-6.5-0.9-12.9,1-18.5
		c0,0-4.8-3.9-8.6-7.1c-3.8-3.1-23.4-18.8-35.5-29.2c-12.1-10.4-47.4-41.2-47.5-41.2c-0.6-0.4-0.9-0.4-2.3,1.2
		c-2.5,2.4-5.7,4.1-9.2,4.8c-11.1,2.4-21.9-6.1-24.2-19c-0.7-4-0.5-7.9,0.5-11.5l-37-36.8l-2.1-5.7l5,0.5l42.1,29.7
		c2.2-1.7,4.8-3,7.6-3.6c11.1-2.4,21.9,6.1,24.2,19c0.9,5.5,0.2,10.8-1.9,15.4l94.3,73.7c3.8-4.6,8.9-7.9,14.8-9.1
		c9.6-2,19.3,1.8,26.1,9.2L521.4,142c-1.3-2.1-1.9-4.2-2.4-6.9c-1.9-10.2,3.9-20,12.9-21.9c4-0.8,8.1,0.1,11.4,2.2l44-42.4
		L593.2,71.1z M242.1,190.2c-1.4-8.2-8-13.2-14.7-11.8c-6.8,1.4-11.1,9.2-9.7,17.4c1.4,8.2,8,13.3,14.7,11.8
		C239.2,206.1,243.5,198.3,242.1,190.2 M547.7,128.1c-1.2-6.6-6.7-11-12.3-9.9c-5.6,1.1-9.1,7.4-7.9,14.1c1.2,6.6,6.7,11.1,12.3,9.9
		C545.4,141,548.9,134.7,547.7,128.1 M374.4,314.6c6.4-1.3,10.5-8.4,9.2-15.7c-1.3-7.3-7.5-12.2-13.9-10.9
		c-6.4,1.3-10.7,8.5-9.4,15.9C361.6,311.2,368,315.9,374.4,314.6 M373.5,310.5c4.2-0.9,6.9-5.6,6-10.5c-0.9-5-5-8.3-9.2-7.4
		c-4.2,0.9-6.9,5.6-6,10.5C365.2,308.1,369.3,311.4,373.5,310.5"/>
	<path class="st0" d="M505.1,452.8c19.4-0.5,42-15.4,42-27.2c0-1.5,0.5-5.6-5.8-5.6C530.5,420.1,510.1,434.2,505.1,452.8
		 M504.6,455.1c-0.4,2-0.6,4-0.6,6.1c0,9.9,3.1,12.1,11.1,12.1c11.8,0,31.5-15.3,52.4-36.2l1.6-1.7c37.6-38,72.9-87.6,78.4-93
		l-94,135.5h-13.8l20.4-29.5c-7.5,6.7-14.6,12.5-21.3,17.2c-12.6,8.8-25.6,14.1-33.1,14.1c-8.6,0-15.6-4.6-15.6-15.4
		c0-2.3,0.6-4.8,1.7-7.4c-11.5,10.8-25.4,20.8-35.1,20.8c-7.7,0-14-6.3-10.5-17.1c-9.9,9.6-20.3,17-29.2,17
		c-6.5,0-22.3-6.2-6.5-27.3l5.3-7.1c-13.1,13.1-26.9,21.8-50.6,35.1l-8.3,11.2c-34.5,46.1-66,76.2-86.1,76.2
		c-7.6,0-11.5-4.4-11.5-10.6c0-18.3,36.4-41.6,82.4-67l7.9-4.4l13.2-18.8c-11.4,8.4-24.4,14.7-34.4,14.7c-9.5,0-14.1-8.2-14.1-13.6
		c0-2.5,0.8-6.2,2.6-10.2c-16,13.9-32.6,23.3-44.3,23.3c-9,0-17.5-5.4-17.5-14.4c0-3.7,1.3-7.8,3.4-11.9c-9-4.2-13.4-13.3-11.7-22.5
		l-45,47.9h-15.4l38.7-51.8c1.7-2.3,2.9-5.9-0.6-5.9c-2.2,0-19.5,7.2-40.9,26.2c11.8-14,36.2-30.1,43.5-30.1c6.3,0,9,4.6,9,8.2
		c0,5-9.3,18.2-20.7,33.5l39-40.8h18C253,429.6,249,445,259.6,450.7c10.1-17,34.7-34.3,49.9-34.3c8.8,0,10.3,4.6,10.3,7.4
		c0,11.1-25.7,31.2-49,31.4c-0.6,2.8-0.9,5.7-0.9,8.7c0,8.3,3,10.2,9.5,10.2c10.9,0,31.5-14.7,49.6-33.9
		c12.1-12.8,30.6-24.9,45.2-24.9c8.5,0,14,2.8,15.4,11.4l6.4-9.1h14.7L369.8,472c39.8-23.2,48.7-32.6,65.1-54.6h15.2l-30.4,40.6
		c-10,13.3-5.2,16.5-0.9,16.5c7.7,0,23.1-11.3,42.7-37.5l14.7-19.7h15.2l-30.4,40.6c-9.8,13.1-4.8,15.7-0.9,15.7
		c3.2,0,19.4-6,40.6-30.3c12.4-14.2,33.2-27.5,46.8-27.5c8.8,0,10.8,4.9,10.8,7.8C558.4,439.9,526.7,454.8,504.6,455.1 M345.6,489.1
		l-2.6,1.5c-40.5,22.4-77.9,48.4-77.9,67.2c0,4.4,3.1,5.9,6.7,5.9c15.2,0,38.7-24.5,57.8-51.8L345.6,489.1z M271.3,453
		c12.6-0.5,37-12,37-25.8c0-1.5-0.3-6.9-6.6-6.9C293.7,420.3,276.4,434.1,271.3,453 M337,472.8c12.8,0,43.2-19.6,43.2-41.9
		c0-4.1-1.5-11.5-11.9-11.5c-17,0-39.1,24.3-39.1,43.3C329.1,471.8,332.9,472.8,337,472.8"/>
	<path class="st0" d="M140.4,390.4C93.2,462,34.7,482.5-7.5,482.5c-39.6,0-70.4-17.5-70.4-47.6c0-36.3,47.8-70.6,89.3-70.6
		c20.2,0,37.3,12.6,37.3,30c0,17-15.5,42.4-55.3,42.4c-15.5,0-27.4-4.7-27.4-4.7s12.9,2.7,24.4,2.7c33.3,0,49-20.2,49-38.7
		c0-25.7-24.5-28.4-29.8-28.4c-40.6,0-75,32-75,66.6c0,31.8,33.1,45.8,57.9,45.8c24.6,0,74.1-5.5,125.6-81
		c31.7-46.4,74.2-93.8,137.2-108C201.9,311,185.6,321.6,140.4,390.4"/>
	<path class="st0" d="M98.2,448.5c18.2,0.8,44.4-18.9,44.4-35.9c0-11.1-10-13.8-14.3-13.8c-32.9,0-56.3,33.6-56.3,52.2
		c0,21.1,19.9,26.8,29.5,26.8c34.4,0,79.8-40.3,79.8-72c0-18-9.5-18.9-15.9-18.9c-5.1,0-7.2,1.3-7.2,3.3c0,2.6,3.3,3.4,5.6,3.4
		c22.3,0,62.7-34.6,62.7-64.8c0-21.5-19.5-22.2-25.2-22.2c-35.2,0-57.3,29.2-78.8,58.5c-21.1,28.8-60.6,66.9-106.5,78
		c47.6-17.3,78.6-52.3,100.8-82.7c21.5-29.4,55.9-59,92.4-59c10.9,0,30.6,5.9,30.6,26.9c0,30.2-51.9,67.9-74.2,67.9
		c-10.1,0-11-3.7-11-5.9c0-4.1,8.9-7.8,16.6-7.8c10.3,0,25,6.1,25,23.2c0,27.3-45.4,75.5-97.2,75.5c-18.3,0-34.5-11.5-34.5-27.4
		c0-23.8,31.7-58.1,67.2-58.1c11.5,0,18.2,8.8,18.2,14.9C149.7,425.5,127.4,450.3,98.2,448.5"/>
	<path class="st0" d="M639.5,399.3l-140.7,0l5.6-7.8c3.1,3.1,4.9,3.7,15,3.8c10.1,0.2,120.2,3.3,120.2,3.3
		C640.8,398.7,640.5,399.3,639.5,399.3"/>
	<path class="st0" d="M685.8,421c-4.9,3.9-18,24.9-44,24.9c-8.8,0-14.6-4.6-14.6-13.2c0-21.3,31.9-37.8,54.8-37.8
		c11.3,0,31.2,1.9,31.2,26.5c0,33.1-31.8,55.8-62.8,55.8c-21.7,0-34.3-8.8-59.9-8.8c-30.5,0-41.4,14.6-45,23.8
		c1.5-4,12.9-18.1,40.6-18.1c19.9,0,36.6,9,56.8,9c33,0,78.3-30,78.3-62.2c0-16.4-9.9-29.6-33.9-29.6c-30.5,0-67.2,22.2-67.2,44.4
		c0,5.6,4.9,14.7,20,14.7C664.1,450.2,682.2,425.9,685.8,421"/>
	<path class="st0" d="M402.3,524.1h-2.8c-0.9,0-1.6,0.7-1.6,1.6v26.5c0,2.3,0.4,4.1,2.5,4.1h3.1c6.9,0,13.4-5.7,13.4-15.9
		C417,536.3,415,524.1,402.3,524.1 M390.1,529.2c0-6.7-3.1-6-3.5-6.3l20.6,0c15.9,0,18.5,13.3,18.5,17.7c0,10.7-10.4,17-18.5,17
		h-20.6c0.4-0.4,3.5,0.4,3.5-6.3V529.2z"/>
	<path class="st0" d="M464,553.1c0.6,1.7,2.2,3.2,4.5,3.2c4.1,0,7.7-4.2,7.7-10.7c0-6.8-3.9-10.2-7-10.2c-2,0-3.8,0.8-5.1,2.2V553.1
		z M464,535.9c2.2-2,5.3-3.1,8.7-3.1c5.1,0,11.6,4.1,11.6,12.4c0,7.7-6.6,13-13.5,13c-2.6,0-5.1-0.9-6.9-2.5l0,9.9
		c0,5.8,2.3,5.2,2.6,5.5h-12.3c0.3-0.3,2.6,0.4,2.6-5.5v-26.3c0-3.9-2.3-3.9-2.9-4.1l10-2.3L464,535.9z"/>
	<path class="st0" d="M525.6,551.9c0,5.8,2.3,5,2.6,5.4h-12.3c0.3-0.3,2.6,0.5,2.6-5.4v-13.2c0-3.8-2.3-3.9-2.9-4.1l10-2.3V551.9z"
		/>
	<path class="st0" d="M521.3,526.1c2,0,3.6-1.1,3.6-2.5c0-1.4-1.6-2.5-3.6-2.5c-2,0-3.6,1.1-3.6,2.5
		C517.7,525,519.3,526.1,521.3,526.1"/>
	<path class="st0" d="M511.8,553.3c0,2.8,1.7,2.9,2.1,3l-9,1.2v-3.2c-2.1,2.6-5.7,3.8-8.4,3.8c-9.3,0-8.9-6.7-8.9-11v-8.6
		c0-5.9-2.1-5.1-2.5-5.4h9.8v16.5c0,5.6,2.9,6.3,4.1,6.3c1.2,0,4.5-0.5,5.9-3.8v-13.5c0-5.9-2.3-5.2-2.6-5.5h9.5L511.8,553.3z"/>
	<path class="st0" d="M441.6,533.8c-4.2,0-5.9,4.2-6.4,7.5h12.4C447.5,537,444.8,533.8,441.6,533.8 M453.9,542.6H435
		c0,0.5-0.1,0.9-0.1,1.3c0,8.2,4.6,11.3,9.1,11.3c3.2,0,5.9-1.6,8-3.5c-2.1,4.2-6.5,7.3-12,7.3c-8.3,0-13.2-7.1-13.2-12.9
		c0-9.2,9.5-13.8,14.7-13.8C445.8,532.2,453.4,534.9,453.9,542.6"/>
	<path class="st0" d="M551,551.2c0,4-4.2,7.8-11.2,7.8c-3.5,0-6.4-0.8-8.8-2.1l-0.1-4.6c1.6,2.9,4.4,5.5,8.4,5.5
		c2.8,0,5.1-1.6,5.1-4.2c0-2.6-2.7-4-6.3-5.4c-3.1-1.2-8-2.9-8-7.9c0-4.2,4.1-7.7,11.2-7.7c1.5,0,3.8,0.1,7.5,2v4.5
		c-3.2-5.3-6.9-5.3-8.2-5.3c-2.7,0-4.6,1.8-4.6,4c0,2.5,1.7,3.8,6.8,5.6C544.2,543.9,551,545.9,551,551.2"/>
	<path class="st0" d="M573.7,558.3c0.3-0.5,2-0.7,2-5v-25.6c0-4.8-1.8-5.2-2.9-5.7l9.7-2.4v33.7c0,4.3,2.2,4.5,2.6,5H573.7z"/>
	<path class="st0" d="M624.7,557.8c3.8-8.6,14-26.6,20.6-36.6h-21.7c-0.7,0-2.2-0.2-3.3-1.1l-3.5,8.1c1.3-0.9,2.9-1.6,4.8-1.6h16
		c-1.2,2.1-6.4,10.9-11.5,19.5c-3.8,6.4-6,9.9-7,11.6H624.7z"/>
	<path class="st0" d="M596.6,557.8c3.8-8.6,14-26.6,20.6-36.6h-21.7c-0.7,0-2.2-0.2-3.3-1.1l-3.5,8.1c1.3-0.9,2.9-1.6,4.8-1.6h16
		c-1.2,2.1-6.4,10.9-11.5,19.5c-3.8,6.4-6,9.9-7,11.6H596.6z"/>
	<path class="st0" d="M650.9,557.5c5.1,0,9.5-4.5,9.5-12c0-5-3.1-10.7-8.8-10.7c-3.2,0-5.9,1.8-7.8,3.9l3.1-17.7h14.2
		c1,0,2.8-0.3,4.4-1.1l-3.3,6.6h-14.5l-1.5,8.4c2.2-1.6,6.1-2.7,8.9-2.7c8.2,0,12.7,6.6,12.7,12.3c0,8.5-7.8,14.3-16.1,14.3
		c-1.5,0-5.8-0.2-10.3-2.4l-0.1-4.5C645.3,557.3,649.1,557.5,650.9,557.5"/>
</g>
</svg>
