<?xml version="1.0" standalone="no"?>
<!DOCTYPE svg PUBLIC "-//W3C//DTD SVG 20010904//EN"
 "http://www.w3.org/TR/2001/REC-SVG-20010904/DTD/svg10.dtd">
<svg version="1.0" xmlns="http://www.w3.org/2000/svg"
 width="900.000000pt" height="500.000000pt" viewBox="0 0 900.000000 500.000000"
 preserveAspectRatio="xMidYMid meet">

<g transform="translate(0.000000,500.000000) scale(0.100000,-0.100000)"
fill="#000000" stroke="none">
<path d="M8275 2574 c-66 -10 -123 -28 -188 -62 -112 -58 -182 -156 -212 -297
-18 -88 -19 -142 0 -228 37 -176 176 -303 366 -336 160 -27 357 0 489 66 l75
38 3 208 2 207 -215 0 -215 0 0 -70 0 -70 135 0 135 0 0 -93 0 -93 -34 -16
c-60 -29 -151 -41 -265 -36 -88 5 -119 10 -162 31 -118 55 -163 130 -164 272
0 73 4 99 23 140 65 142 210 208 403 184 46 -5 112 -22 147 -36 35 -14 65 -23
67 -21 3 2 18 33 34 69 l29 64 -47 21 c-100 45 -300 73 -406 58z"/>
<path d="M190 2104 l0 -456 343 4 343 3 59 30 c73 37 111 94 127 186 16 95 -6
162 -72 222 l-49 44 20 19 c38 35 53 76 53 149 1 130 -50 208 -156 240 -42 12
-111 15 -360 15 l-308 0 0 -456z m594 302 c68 -28 92 -90 62 -161 -25 -60 -48
-65 -291 -65 l-215 0 0 120 0 120 205 0 c152 0 214 -4 239 -14z m45 -379 c48
-17 73 -54 73 -110 0 -58 -23 -92 -75 -112 -35 -13 -81 -15 -262 -13 l-220 3
-3 123 -3 122 228 -1 c150 0 240 -4 262 -12z"/>
<path d="M1370 2106 l0 -456 80 0 80 0 0 190 0 190 118 0 118 0 120 -190 119
-190 93 0 c72 0 91 3 86 13 -5 6 -59 90 -121 184 -62 95 -113 175 -113 178 0
3 8 5 18 5 44 0 118 35 158 76 69 68 91 174 59 282 -20 67 -61 113 -127 143
-52 23 -61 24 -370 27 l-318 3 0 -455z m565 304 c58 -13 105 -67 105 -121 0
-55 -14 -77 -63 -100 -37 -16 -67 -19 -244 -19 l-203 0 0 125 0 125 183 0
c100 0 200 -5 222 -10z"/>
<path d="M2510 2105 l0 -455 385 0 385 0 0 75 0 75 -305 0 -305 0 0 115 0 115
220 0 220 0 0 75 0 75 -220 0 -220 0 0 115 0 115 305 0 305 0 0 75 0 75 -385
0 -385 0 0 -455z"/>
<path d="M3580 2105 l0 -455 80 0 80 0 0 455 0 455 -80 0 -80 0 0 -455z"/>
<path d="M4040 2485 l0 -75 170 0 170 0 0 -380 0 -380 80 0 80 0 0 380 0 380
170 0 170 0 0 75 0 75 -420 0 -420 0 0 -75z"/>
<path d="M5190 2105 l0 -455 355 0 355 0 0 75 0 75 -275 0 -275 0 0 380 0 380
-80 0 -80 0 0 -455z"/>
<path d="M6170 2105 l0 -455 80 0 80 0 0 455 0 455 -80 0 -80 0 0 -455z"/>
<path d="M6740 2105 l0 -455 75 0 75 0 2 317 3 317 284 -317 284 -317 59 0 58
0 0 455 0 455 -80 0 -80 0 -2 -309 -3 -309 -275 308 -275 308 -62 1 -63 1 0
-455z"/>
<path d="M3796 1180 c-106 -34 -161 -117 -136 -208 6 -23 21 -54 34 -69 l24
-28 -33 -37 c-45 -49 -61 -109 -46 -167 18 -66 45 -97 118 -133 63 -31 72 -33
177 -32 100 0 117 3 171 27 74 35 93 51 116 102 33 72 19 156 -36 207 l-33 32
24 29 c86 102 37 234 -103 277 -83 26 -197 26 -277 0z m269 -118 c38 -23 45
-62 14 -91 -50 -46 -206 -51 -271 -8 -37 26 -48 66 -23 87 50 41 217 48 280
12z m19 -285 c59 -39 50 -107 -18 -138 -58 -26 -204 -26 -264 1 -47 21 -67 56
-53 93 20 53 64 67 202 64 82 -2 111 -6 133 -20z"/>
<path d="M4520 1187 c-68 -19 -118 -54 -140 -98 -34 -65 -23 -138 26 -190 l25
-26 -24 -16 c-14 -9 -34 -36 -46 -60 -54 -111 0 -225 130 -273 64 -24 227 -24
297 0 60 20 115 64 138 109 33 62 16 163 -36 212 l-30 28 27 36 c21 27 28 49
31 96 5 79 -20 119 -101 159 -50 25 -72 30 -155 33 -59 2 -115 -2 -142 -10z
m250 -126 c76 -39 26 -113 -87 -127 -103 -13 -221 33 -211 83 4 23 51 55 95
64 55 11 162 1 203 -20z m-17 -272 c104 -29 102 -129 -4 -159 -44 -13 -174
-13 -221 0 -41 12 -78 51 -78 84 0 33 21 55 65 71 47 17 184 19 238 4z"/>
<path d="M3350 845 l0 -335 65 0 65 0 0 335 0 335 -65 0 -65 0 0 -335z"/>
<path d="M5137 970 c-85 -185 -97 -217 -97 -265 l0 -55 190 0 189 0 3 -67 3
-68 58 -3 57 -3 0 71 0 70 35 0 35 0 0 55 0 55 -35 0 -35 0 0 210 0 210 -153
0 -154 0 -96 -210z m283 -55 l0 -155 -125 0 c-69 0 -125 2 -125 4 0 4 129 286
137 299 2 4 29 7 59 7 l54 0 0 -155z"/>
</g>
</svg>
