<?xml version="1.0" standalone="no"?>
<!DOCTYPE svg PUBLIC "-//W3C//DTD SVG 20010904//EN"
 "http://www.w3.org/TR/2001/REC-SVG-20010904/DTD/svg10.dtd">
<svg version="1.0" xmlns="http://www.w3.org/2000/svg"
 width="300.000000pt" height="105.000000pt" viewBox="0 0 300.000000 105.000000"
 preserveAspectRatio="xMidYMid meet">

<g transform="translate(0.000000,105.000000) scale(0.100000,-0.100000)"
fill="#000000" stroke="none">
<path d="M1310 879 c0 -98 4 -179 10 -190 13 -24 58 -47 123 -64 44 -11 60
-11 115 3 40 9 74 25 93 43 l29 27 0 176 0 176 -185 0 -185 0 0 -171z m172
111 c2 -22 1 -40 -1 -40 -3 0 -20 14 -38 32 l-33 32 -33 -32 c-18 -18 -36 -32
-40 -32 -4 0 -7 18 -7 40 l0 40 74 0 74 0 4 -40z m88 5 c0 -32 -2 -35 -30 -35
-28 0 -30 3 -30 35 0 32 2 35 30 35 28 0 30 -3 30 -35z m90 0 c0 -32 -2 -35
-30 -35 -28 0 -30 3 -30 35 0 32 2 35 30 35 28 0 30 -3 30 -35z m-214 -71 c19
-15 34 -35 34 -45 0 -17 -8 -19 -75 -19 -52 0 -75 4 -75 12 0 14 60 78 73 78
4 0 24 -12 43 -26z m122 -31 c3 -31 1 -33 -27 -33 -29 0 -31 3 -31 36 0 33 2
35 28 32 22 -2 28 -8 30 -35z m90 0 c3 -31 1 -33 -27 -33 -29 0 -31 3 -31 36
0 33 2 35 28 32 22 -2 28 -8 30 -35z m-268 -99 c0 -33 -2 -35 -27 -32 -23 2
-29 8 -31 36 -3 30 -1 32 27 32 29 0 31 -3 31 -36z m90 1 c0 -31 -3 -35 -25
-35 -22 0 -25 4 -25 35 0 31 3 35 25 35 22 0 25 -4 25 -35z m180 0 c0 -19 -3
-35 -7 -35 -4 0 -22 14 -40 32 l-33 32 -35 -34 -35 -34 0 37 0 37 75 0 75 0 0
-35z m-36 -64 c16 -16 26 -34 22 -39 -8 -13 -64 -38 -103 -47 -32 -6 -33 -5
-33 24 0 23 9 40 33 61 17 16 37 30 43 30 5 0 23 -13 38 -29z m-234 -37 c0
-33 -2 -35 -17 -23 -23 17 -43 41 -43 51 0 4 14 8 30 8 28 0 30 -3 30 -36z
m90 -10 c0 -38 -3 -45 -16 -40 -9 3 -20 6 -25 6 -5 0 -9 18 -9 40 0 36 3 40
25 40 23 0 25 -4 25 -46z"/>
<path d="M150 405 c0 -108 1 -115 20 -115 17 0 20 7 20 50 0 43 3 50 20 50 24
0 40 -28 40 -69 0 -26 4 -31 23 -31 22 0 23 3 17 48 -3 26 -9 53 -14 60 -4 7
-3 19 4 27 6 8 10 26 8 42 -4 34 -37 53 -95 53 l-43 0 0 -115z m94 59 c8 -21
-11 -44 -35 -44 -14 0 -19 7 -19 30 0 25 4 30 24 30 13 0 27 -7 30 -16z"/>
<path d="M330 405 l0 -115 60 0 c47 0 60 3 60 15 0 11 -11 15 -40 15 -39 0
-40 1 -40 35 0 33 2 35 35 35 28 0 35 4 35 20 0 16 -7 20 -35 20 -31 0 -35 3
-35 25 0 23 4 25 41 25 33 0 40 3 37 18 -2 13 -15 18 -61 20 l-57 3 0 -116z"/>
<path d="M488 514 c-5 -4 -8 -56 -8 -116 l0 -108 54 0 c45 0 58 4 70 22 20 29
22 156 3 182 -14 20 -105 35 -119 20z m86 -50 c3 -9 6 -40 6 -69 0 -44 -4 -56
-20 -65 -33 -17 -40 -3 -40 76 0 71 1 74 24 74 13 0 27 -7 30 -16z"/>
<path d="M670 405 l0 -116 57 3 c68 4 89 28 24 28 -40 0 -41 1 -41 35 0 33 2
35 36 35 28 0 35 3 32 18 -2 11 -14 18 -36 20 -26 3 -32 8 -32 27 0 20 6 24
38 27 25 2 37 8 37 18 0 11 -14 16 -57 18 l-58 3 0 -116z"/>
<path d="M820 405 c0 -108 1 -115 20 -115 17 0 20 7 20 51 0 47 2 50 23 47 18
-2 24 -12 31 -50 7 -37 14 -48 28 -48 14 0 18 8 18 41 0 22 -5 49 -10 59 -7
14 -7 25 1 38 17 28 3 71 -27 82 -14 6 -43 10 -65 10 l-39 0 0 -115z m93 63
c7 -21 -12 -48 -33 -48 -16 0 -20 7 -20 30 0 25 4 30 24 30 13 0 26 -6 29 -12z"/>
<path d="M1000 406 c0 -110 1 -116 20 -116 20 0 21 5 18 112 -3 98 -5 113 -20
116 -16 3 -18 -7 -18 -112z"/>
<path d="M1096 498 c-11 -16 -16 -46 -16 -100 0 -91 11 -108 74 -108 23 0 47
-5 53 -11 13 -13 28 5 17 22 -4 7 -6 47 -5 91 3 101 -12 128 -69 128 -29 0
-43 -6 -54 -22z m72 -20 c16 -16 15 -119 -2 -140 -30 -40 -46 -15 -46 71 0 50
11 81 30 81 3 0 11 -5 18 -12z"/>
<path d="M1260 425 c0 -123 6 -135 70 -135 65 0 72 14 68 132 -3 79 -6 93 -20
96 -16 3 -18 -6 -18 -85 0 -95 -7 -117 -36 -111 -17 3 -20 15 -24 98 -4 80 -8
95 -22 98 -16 3 -18 -7 -18 -93z"/>
<path d="M1440 405 l0 -115 60 0 c47 0 60 3 60 15 0 11 -11 15 -40 15 -39 0
-40 1 -40 35 0 33 2 35 35 35 28 0 35 4 35 20 0 16 -7 20 -35 20 -31 0 -35 3
-35 25 0 23 4 25 41 25 33 0 40 3 37 18 -2 13 -15 18 -61 20 l-57 3 0 -116z"/>
<path d="M1695 506 c-16 -11 -20 -30 -23 -90 -5 -97 10 -126 67 -126 42 0 56
11 66 53 6 24 5 27 -19 27 -19 0 -26 -5 -26 -19 0 -28 -21 -37 -37 -16 -29 41
-7 171 25 151 7 -4 12 -14 12 -22 0 -8 10 -14 24 -14 20 0 23 4 19 23 -11 45
-68 62 -108 33z"/>
<path d="M1854 495 c-12 -19 -15 -43 -12 -105 4 -92 10 -100 75 -100 55 0 67
22 67 117 -1 89 -17 113 -75 113 -30 0 -42 -6 -55 -25z m74 -17 c19 -19 16
-147 -3 -154 -30 -12 -45 15 -45 80 0 55 11 86 30 86 3 0 11 -5 18 -12z"/>
<path d="M2027 514 c-4 -4 -7 -56 -7 -116 0 -101 1 -108 20 -108 18 0 20 7 20
78 l1 77 30 -77 c23 -60 35 -78 50 -78 18 0 19 8 19 116 0 105 -2 115 -17 112
-15 -3 -18 -15 -17 -81 l1 -78 -31 78 c-28 72 -50 96 -69 77z"/>
<path d="M2217 502 c-32 -35 -17 -78 38 -112 26 -16 35 -28 33 -44 -4 -29 -42
-29 -46 2 -5 32 -42 30 -42 -2 0 -36 26 -56 70 -56 29 0 43 6 54 22 30 42 22
58 -66 133 -16 13 -17 19 -7 32 12 13 15 13 30 -6 21 -26 49 -27 49 -3 0 46
-81 70 -113 34z"/>
<path d="M2355 510 c-9 -15 4 -30 26 -30 17 0 19 -8 19 -96 0 -93 1 -95 23
-92 21 3 22 8 25 96 2 84 4 92 22 92 13 0 20 7 20 20 0 18 -7 20 -64 20 -36 0
-68 -4 -71 -10z"/>
<path d="M2541 483 c-18 -67 -41 -168 -41 -180 0 -7 9 -13 19 -13 13 0 21 9
26 30 5 23 12 30 30 30 18 0 25 -7 30 -30 5 -21 13 -30 26 -30 24 0 24 12 -4
130 -21 89 -24 95 -49 98 -24 3 -28 -1 -37 -35z m48 -85 c1 -10 -6 -18 -14
-18 -17 0 -18 4 -8 51 7 33 7 33 14 9 4 -14 7 -33 8 -42z"/>
<path d="M2684 507 c-2 -7 -3 -58 -2 -113 3 -96 4 -99 27 -102 l24 -4 -6 79
-6 78 30 -77 c27 -68 34 -78 55 -78 l25 0 -3 113 c-3 104 -4 112 -23 112 -18
0 -20 -6 -17 -72 1 -40 0 -73 -2 -73 -2 0 -13 28 -26 63 -12 34 -27 68 -32 75
-14 16 -37 15 -44 -1z"/>
<path d="M2867 514 c-15 -16 -6 -34 18 -34 25 0 25 0 25 -95 0 -88 1 -95 20
-95 19 0 20 7 20 95 l0 95 26 0 c19 0 25 5 22 18 -3 13 -15 18 -64 20 -33 2
-63 0 -67 -4z"/>
<path d="M0 400 c0 -103 1 -110 20 -110 17 0 20 7 20 50 l0 50 35 0 c46 0 49
27 3 32 -28 2 -34 8 -36 31 -3 26 -1 27 37 27 30 0 41 4 41 15 0 12 -13 15
-60 15 l-60 0 0 -110z"/>
<path d="M1126 164 c-11 -10 -16 -34 -16 -74 0 -71 18 -95 63 -86 16 3 33 6
38 6 5 0 9 20 9 45 0 41 -2 45 -25 45 -16 0 -25 -6 -25 -15 0 -8 5 -15 10 -15
16 0 11 -30 -6 -37 -22 -8 -34 14 -34 65 0 48 24 68 45 39 16 -22 35 -22 35 1
0 41 -63 58 -94 26z"/>
<path d="M1260 95 l0 -85 45 0 c25 0 45 5 45 10 0 6 -13 10 -30 10 -25 0 -30
4 -30 24 0 19 6 25 25 28 14 2 26 8 26 13 0 6 -12 11 -26 13 -39 5 -35 42 5
42 20 0 30 5 30 15 0 11 -12 15 -45 15 l-45 0 0 -85z"/>
<path d="M1387 173 c-4 -3 -7 -42 -7 -85 0 -73 1 -78 21 -78 20 0 21 4 16 53
l-6 52 24 -52 c37 -82 55 -72 55 32 0 69 -3 85 -15 85 -11 0 -15 -13 -16 -52
l0 -53 -21 53 c-19 48 -35 62 -51 45z"/>
<path d="M1540 96 l0 -86 45 0 c25 0 45 5 45 10 0 6 -13 10 -30 10 -25 0 -30
4 -30 25 0 20 5 25 25 25 16 0 25 6 25 15 0 9 -9 15 -25 15 -18 0 -25 5 -25
20 0 16 7 20 31 20 47 0 30 24 -19 28 l-42 3 0 -85z"/>
<path d="M1650 173 c1 -4 9 -42 18 -83 15 -63 21 -76 39 -78 18 -3 24 4 31 35
33 129 33 133 6 133 -8 0 -15 -21 -20 -60 -4 -33 -10 -60 -14 -60 -4 0 -12 26
-16 57 -7 43 -14 59 -26 61 -10 2 -18 0 -18 -5z"/>
<path d="M1800 96 l0 -86 45 0 c25 0 45 5 45 10 0 6 -13 10 -30 10 -25 0 -30
4 -30 25 0 20 5 25 25 25 16 0 25 6 25 15 0 9 -9 15 -25 15 -18 0 -25 5 -25
20 0 16 7 20 31 20 47 0 30 24 -19 28 l-42 3 0 -85z"/>
</g>
</svg>
