<?xml version="1.0" encoding="utf-8"?>
<!-- Generator: Adobe Illustrator 22.1.0, SVG Export Plug-In . SVG Version: 6.00 Build 0)  -->
<svg version="1.1" id="レイヤー_1" xmlns="http://www.w3.org/2000/svg" xmlns:xlink="http://www.w3.org/1999/xlink" x="0px"
	 y="0px" viewBox="0 0 273 117" style="enable-background:new 0 0 273 117;" xml:space="preserve">
<style type="text/css">
	.st0{fill:#15243E;}
</style>
<g id="_x3C_グループ_x3E_">
	<path class="st0" d="M137.1,5.6l0.7-0.7c-6.2,3.9-12-2-17.9-4.2c-6.5-1.6-11.4,2-15.6,6.5c-10.1,11.1-10.1,29.3-5.2,42.6
		c2.9,6.5,8.8,13.3,16.3,13.7c4.6,0.3,9.1-2.9,13-3.6c3.6-0.3,4.9,1,5.2,2v-25c0-2.9,2.3-5.2,3.9-5.5c-3.6-2.9-7.5-5.5-11.1-8.5
		C129.6,17,133.5,11.2,137.1,5.6z M107.5,42.4c-2.3-12-1.6-25.7,6.8-34.5c1.3-1.3,2.6-2,4.2-2.3c2.3-0.3,4.6,0.7,5.9,2.6
		c2.3,3.6,1.3,5.9,0,8.1l-16.3,26H107.5z M124.7,37.5v18.9c0,2-7.5,3.3-10.1,2.6c-2.9-1-5.5-3.9-6.2-7.8v-1.3L120.8,31l5.2,2.9
		C125.1,34.9,124.7,36.2,124.7,37.5z"/>
	<path class="st0" d="M175.8,15.1c-2.3,1.6-4.6,4.2-4.9,7.2h-0.7l-15.3-12c-1.6,1-3.3,2.9-4.2,4.6c-1,2.6,0.3,5.5,2,7.5
		c7.5,7.5,15.6,13.7,22.1,21.8c1,2,1,4.6,0,6.5l-2.3,2.6l-15.3,13.3c-5.9-4.2-11.4-8.8-16.9-13.7c2.3-1.6,4.9-3.9,5.5-6.8
		c4.6,3.3,8.8,7.2,13.3,10.4c2,0.3,3.9-1,5.2-2.9c0.7-1.3,1.3-2.9,1-4.6l-1.3-2.6l-20.2-19.5c-2-2-2.9-4.6-2.9-7.5
		c0.3-2.3,1.3-4.6,3.3-6.2l14.6-11.4C164.1,6.3,169.9,10.5,175.8,15.1"/>
	<path class="st0" d="M183.9,80.7c-2.6,1.6-5.5,4.6-7.8,7.2c-1.6-3.6-5.5-5.2-8.5-7.8c-1.3,2.3-4.6,2-3.6,5.2
		c6.5,5.2,13.7,8.5,20.2,14c1,1,2.3,2.6,1.6,4.2l-1.6,1.6c-3.9,3.6-8.1,6.8-11.4,11.4c-4.6-3.9-9.4-6.8-15.3-7.8
		c-2,0.3-3.9,0.7-5.9,0.7c3.6-2.6,7.5-5.2,11.1-8.5l0.3,2c3.3,2.3,7.8,2.9,10.7,6.2c0.3,0.3,0,1,0.3,1.3c1.6-2,4.6-3.9,3.6-6.8
		c-5.2-5.5-11.7-8.5-17.6-13c-1.3-1.3-2.6-2.6-2.6-4.2c1.3-7.8,10.7-6.5,14.3-12.4C174.5,78.1,178.4,81.7,183.9,80.7"/>
	<path class="st0" d="M33.4,83.3c-4.6-1.3-13.3-8.5-13.3-8.5c-0.7-0.3-1-1.3-1-1.3c-0.7-1.6-1,0-1,0c-0.3,2-2.6,3.3-2.6,3.3
		c-8.1,2.9-11.1,6.5-11.1,6.5c-5.9,8.1-4.2,15-4.2,15c2.3,13,14,15,14,15c5.2,1,11.4-1.6,11.4-1.6c0.7-0.3,1.3,0,1.3,0l3.9,1.6
		c1,0.7,0.7-0.3,0.7-0.3l-1.3-2.6V109V94.4c0-1,1.6-2.3,1.6-2.3c0.7-0.7,0-0.7,0-0.7h-0.3c-1.6,0-2.9-0.7-2.9-0.7
		c-0.3-0.3-1.6-0.3-1.6-0.3c-1,0,0.3-1,0.3-1c4.2-4.9,6.8-4.9,6.8-4.9c1-0.3,0.7-0.7,0.7-0.7C34.4,83.3,33.4,83.3,33.4,83.3
		 M23.3,96c-0.3,0.7-0.7,1.3-0.7,1.3v11.4c0.3,0.7-0.7,0.7-0.7,0.7c-1,0-2.3,0-2.3,0c-3.9,0.7-7.5-2.9-7.5-2.9c-1.6-2-2.3-2-2.3-2
		c-1.3-0.3,0-1,0-1c1.6-1.6,4.6-4.6,4.6-4.6c3.3-2.6,5.2-4.6,5.2-4.6c0.7-0.3,1,0,1,0c0.3,1,2,1,2,1C23.6,95.7,23.3,96,23.3,96
		 M25.3,86.6c0,0-0.7,0-1.6,1L9,101.2c0,0-0.7,0.3-0.7-0.7c0,0,0.3-1,0-2c0,0-2.3-6.5,0.3-12c0,0,2.6-5.2,5.2-6.2
		c0,0,1.3-0.3,1.3-1.3c0,0,0.7-0.7,1,0c0,0,0.7,1,2,2c0,0,4.2,2.9,5.2,3.9c0.7,0.3,1.6,0.7,2,1C25.6,85.9,26.2,86.3,25.3,86.6"/>
	<path class="st0" d="M59.1,89.2c-1,0.3-2,0.3-2,0.3c-1.3-0.3-3.3-2.6-3.3-2.6c-0.3-0.7-0.7,0-0.7,0c-1,1.3-4.6,3.9-4.6,3.9
		c-1,0.7-1.3-0.3-1.3-0.3c0-0.7-1-1-1-1c-2-1-3.9-2.9-3.9-2.9c-0.7-1.3-1.3-0.3-1.3-0.3c-1.3,1.6-6.2,3.6-6.2,3.6c-1.3,1,0,1,0,1
		c1,0.3,2.9,0.7,2.9,0.7c3.6,1.3,2.9,3.9,2.9,3.9v14c0,1.3-2.6,2.3-2.6,2.3c-2,1,0,0.7,0,0.7h12.7c0.7,0.3-0.3-0.7-0.3-0.7
		c-1.6-1-2.9-1.6-2.9-1.6c-0.7-0.3-0.7-1.6-0.7-1.6v-14c0.3-1.3,2-1.6,2-1.6c0.7-0.3,0.7-0.7,0.7-0.7c0.3-0.3,1,0,1,0l0.3,0.3
		c2,1,2,2.6,2,2.6c0,1.3,1,0.3,1,0.3l5.2-5.2C59.7,88.9,59.1,89.2,59.1,89.2"/>
	<path class="st0" d="M82.2,109c-3.3-0.3-3.3-2.6-3.3-2.6v-15c0-1.6-1.6-2.3-1.6-2.3c-2-0.7-4.6-2-4.6-2c-1-0.3-1.3-1.3-1.3-1.3
		c-0.3-1.3-1-0.7-1-0.7l-9.1,5.9c-2,1.6,1,0.7,1,0.7c2.9-1,5.9-1,8.5,0c2.6,1,2.3,2,2.3,2v1.3c0,0.7-0.3,0.7-0.3,0.7
		c-3.9-1-8.1,1-8.1,1c-6.2,1.3-7.5,7.5-7.5,7.5c-1.6,7.8,4.6,9.1,4.6,9.1c2,0.7,2.3,1.6,2.3,1.6c1,1,1,0,1,0c0-0.7,7.5-6.5,7.5-6.5
		c1-1,0.7,0.3,0.7,0.3c-0.3,0.7-0.3,2.3-0.3,2.3c0,0.3,1,1,1,1c1,0.7,2.6,2.3,2.6,2.3c0.7,1,1-0.3,1-0.3c0.7-1,2.3-2.3,2.3-2.3
		c1-0.7,3.3-1.6,3.3-1.6C83.5,109,82.2,109,82.2,109 M73.1,98c-0.3,0-0.3,2.3-0.3,2.3v3.3c0,1-1.3,2-1.3,2l-3.6,2.6
		c-0.7,0.7-2-0.3-2-0.3c-4.2-2.6-1.6-7.2-1.6-7.2c2.6-4.6,8.5-3.9,8.5-3.9C73.7,97.3,73.1,98,73.1,98"/>
	<path class="st0" d="M111.4,107.7c-2,0.3-2.9,0-2.9,0c-1-0.3-1.3-2.6-1.3-2.6v-13c0-1-0.7-1.6-0.7-1.6s-3.6-3.6-4.2-4.6
		c-0.3-1-1-0.3-1-0.3c-2,2.3-6.5,4.6-6.5,4.6c-1,1-1.3,0.3-1.3,0.3c-1-0.3-3.3-3.9-3.3-3.9C90,85,89,86.9,89,86.9
		c-1,1-6.5,4.2-6.5,4.2c-1.3,1.3,0.3,1,0.3,1c1.6-0.7,2.9,0,2.9,0c2.3,1,2,3.3,2,3.3v12.7c0,2.3-2.3,2.9-2.3,2.9
		c-1,0.7-0.3,0.7-0.3,0.7h11.4c1.3,0-0.3-0.7-0.3-0.7c-2.6-0.7-2.3-3.3-2.3-3.3V94.4c0-1,0.3-1,0.3-1c2.9-1.6,3.9-2.6,3.9-2.6
		c0.7-0.7,1,0,1,0c0,1.3,1.6,2.6,1.6,2.6c0.7,0.7,0.7,1.3,0.7,1.3v15l2.6,2.9c0.3,0.7,0.7,0.3,1,0.3c0.7-0.7,2-1.3,2-1.3
		c2-1.6,3.6-2.6,3.6-2.6C113,107.7,111.4,107.7,111.4,107.7"/>
	<path class="st0" d="M138.1,110.3c1-0.3-0.3-0.7-0.3-0.7c-3.3-1-2.9-2.9-2.9-2.9V82c0-1,0.7-1,0.7-1l2-1.3c1-0.7-0.7-0.3-0.7-0.3
		h-10.1c-1,0-0.3,0.7-0.3,0.7l1.6,1c1,0.7,0.7,2,0.7,2v6.2c0,1.3-0.7,0.3-0.7,0.3c-0.7-0.7-2.6-2.9-2.6-2.9c-0.7-2-1-1-1-1
		c-0.3,1.3-2,2.3-2,2.3c-5.5,2.9-7.2,5.9-7.2,5.9c-3.9,4.9-2,11.4-2,11.4c1.6,4.6,8.1,9.8,8.1,9.8c0.3,0.3,0.7,0.3,0.7,0.7
		c0.7,0.7,1-0.3,1-0.3l4.6-4.6c1-0.7,1,0.3,1,0.3c0,1.3,0.7,1.6,0.7,1.6c2,1,2.6,2.6,2.6,2.6c0.3,1.3,0.7,0.7,1,0
		c0.3-0.3,0.3-0.7,0.3-0.7c1.6-2,4.2-3.6,4.2-3.6C137.8,110.7,138.1,110.3,138.1,110.3 M128,106.4c0,0-1.6,1-2.3,2c0,0-0.3,1-1,0
		c0,0-0.7-1-2.9-2.9c0,0-3.6-3.3-2.3-9.1c0,0,0.7-3.6,3.9-7.2c0,0,0.7-1.6,1.3,0.3c0,0,0,0.7,1.6,2l1.6,2c0,0,0.7,0.3,0.7,1.3v9.4
		C128.6,104.5,129,106.1,128,106.4"/>
	<path class="st0" d="M195.3,103.8l15.3-8.5c2-0.7,0.3-1,0.3-1c-1.3,0-2-1-2-1c-1.6-1-2.9-2.9-4.2-4.2c-2-2-3.3-3.9-3.3-3.9
		c0-1.6-0.7-0.7-1.3,0.3c-0.3,0.7-1.3,1.3-1.3,1.3c-10.1,5.9-10.4,13-10.4,13c-1,9.4,9.8,13.7,9.8,13.7c1,0.3,0.7,1.6,0.7,1.6
		c-0.7,2.3,1,0,1,0c2.9-3.3,8.8-6.5,8.8-6.5c3.6-2,0-1,0-1c-3.6,0.3-4.6,0-4.6,0c-2.6-0.3-4.9-1.6-4.9-1.6c-0.7-0.7-3.3-0.7-3.3-0.7
		C194.3,104.8,195.3,103.8,195.3,103.8 M194.6,100.6c0,0,0-3.9,0.3-5.2c0,0,1-3.6,2.6-5.2c0,0,0.7-1.3,1-0.3c0,0,0,0.7,0.3,1
		c0,0,2.3,3.9,3.6,4.2c0,0,1.3,0.7,0.3,1.3l-7.2,4.6C195.3,101.2,194.3,101.9,194.6,100.6"/>
	<path class="st0" d="M210.9,81.1c4.6,1.6,10.7,0.7,10.7,0.7c3.6,0,1-1,1-1c-1.6,0-3.9-1.3-3.9-1.3c-2-1-1.3-2.6-1.3-2.6
		c-0.3-2-1.6,0-1.6,0c-0.7,1.6-3.9,2.9-3.9,2.9C209,80.7,210.9,81.1,210.9,81.1"/>
	<path class="st0" d="M222.9,111.3l-2.3-2c-0.3-0.7-0.3-2.3-0.3-2.3V89.8c0-1,1-1.3,1-1.3c1.6-0.3-0.3-1-0.3-1
		c-1.6-0.7-3.3-2.6-3.3-2.6c-0.7-1.3-1.3-0.3-1.3-0.3c-1.3,1.6-3.3,2.9-3.3,2.9c-0.7,0.3-2.3,1.3-2.3,1.3c-1.3,1,0,0.7,0,0.7h2.3
		c1.6,0,1.3,2,1.3,2v17.2c0,1.3-2.6,2.3-2.6,2.3c-2,1,0.3,1,0.3,1h11.4C224.6,112.3,222.9,111.3,222.9,111.3"/>
	<path class="st0" d="M252.5,108.7l-1.6-0.3c-2-0.3-3.6-2.6-3.6-2.6l-3.6-5.5c-1.6-2-2.6-2.3-2.6-2.3c-2.3-0.3-0.3-1-0.3-1
		c2.9-1.3,4.2-2.3,4.2-2.3c4.2-2.6,2.6-4.9,2.6-4.9c-0.3-1.3-5.9-5.2-5.9-5.2c-1-1-1.3-0.3-1.3-0.3c-0.3,1.3-4.6,4.9-4.6,4.9
		c-1.3,1-0.7,1-0.7,1c1.6-0.3,3.3,0.3,3.3,0.3c4.2,1.6,2,3.9,2,3.9c-1.3,1.6-5.9,2.6-5.9,2.6c-1,0-1-1.3-1-1.3V81.4c0-1,1-1.3,1-1.3
		l1.3-1c1.3-1-0.3-0.7-0.3-0.7h-9.8c-1.6,0-0.3,0.7-0.3,0.7l1.3,1c1,0.3,1,1.6,1,1.6v26.3c0,1-1,1.3-1,1.3l-2.3,1.6
		c-1.6,1,0.3,0.7,0.3,0.7h12.7c1.3,0-0.7-0.7-0.7-0.7l-1.6-1c-2-1-1.6-3.3-1.6-3.3v-7.2c1-2.6,2.9,0,2.9,0l6.2,10.4c0.7,1,0,2,0,2
		l-0.3,1c-0.3,1.3,1.3,0,1.3,0L252.5,108.7C253.8,108.7,252.5,108.7,252.5,108.7"/>
	<path class="st0" d="M273,99.3c0.3-6.2-6.5-11.4-6.5-11.4c-2.6-1.6-4.9-4.9-4.9-4.9c-0.3-1.6-1-1.6-1.6,0.3c-0.7,1.6-2,2.9-2,2.9
		c-6.8,6.8-6.8,11.1-6.8,11.1c-1.3,8.8,6.2,13.7,6.2,13.7c2,1,4.9,3.3,4.9,3.3c0.3,0.3,0.3,0.3,0.7,0.7c0.7,1.6,1.3-0.7,1.3-0.7
		c1-2.3,3.3-4.6,3.3-4.6C273.7,104.8,273,99.3,273,99.3 M266.2,108.1c0,0-0.7,1.6-1,0.3c0,0-0.7-1.3-2.3-1.6c0,0-4.9-2-6.8-6.8
		c0,0-1.6-4.2,1.3-8.5c0.3-0.7,1-1.6,1-2c0,0,0.7-1,0.7,0.3c0,0,0,1,1.3,1.6c1.6,1,6.2,3.6,7.5,7.2
		C267.8,98.3,269.4,101.9,266.2,108.1"/>
</g>
</svg>
