<?xml version="1.0" standalone="no"?>
<!DOCTYPE svg PUBLIC "-//W3C//DTD SVG 20010904//EN"
 "http://www.w3.org/TR/2001/REC-SVG-20010904/DTD/svg10.dtd">
<svg version="1.0" xmlns="http://www.w3.org/2000/svg"
 width="515.000000pt" height="180.000000pt" viewBox="0 0 515.000000 180.000000"
 preserveAspectRatio="xMidYMid meet">

<g transform="translate(0.000000,180.000000) scale(0.100000,-0.100000)"
fill="#000000" stroke="none">
<path d="M2246 1440 c-14 -22 -26 -42 -26 -45 0 -3 23 -5 50 -5 l50 0 0 -144
0 -145 -37 6 c-32 5 -86 20 -213 58 -10 3 -28 -15 -53 -51 -21 -31 -37 -58
-35 -59 2 -1 25 -9 52 -19 45 -14 51 -14 67 0 15 14 25 13 100 -3 112 -24 353
-24 458 0 68 15 76 15 92 1 16 -15 22 -15 68 1 28 9 51 20 51 24 0 5 -17 30
-37 57 -20 27 -37 50 -38 52 -1 1 -36 -8 -77 -22 -40 -14 -99 -29 -131 -34
l-57 -9 0 144 0 143 55 0 56 0 -31 45 -31 45 -61 0 c-43 0 -67 -5 -80 -16 -16
-16 -18 -16 -24 0 -5 13 -20 16 -74 16 l-67 0 -27 -40z m152 8 c9 -9 12 -71
12 -216 l0 -204 -67 6 c-38 4 -106 16 -153 27 -76 18 -86 18 -96 4 -13 -18
-23 -19 -59 -5 l-26 10 27 36 c21 27 32 34 48 29 69 -20 168 -43 209 -49 l47
-7 0 165 0 166 -45 0 -45 0 16 25 c14 21 24 25 68 25 29 0 57 -5 64 -12z m187
-10 c15 -23 15 -23 -30 -26 l-45 -3 0 -165 c0 -133 3 -164 14 -164 32 0 182
32 219 47 l40 17 28 -34 c32 -38 31 -46 -12 -55 -22 -5 -34 -3 -43 10 -11 15
-17 15 -71 1 -55 -14 -197 -36 -231 -36 -12 0 -14 33 -14 196 0 115 4 203 10
215 9 15 22 19 65 19 45 0 57 -4 70 -22z"/>
<path d="M490 956 c0 -7 9 -16 21 -19 20 -5 21 -10 17 -134 -4 -137 -12 -162
-57 -183 -22 -10 -28 -9 -44 12 -71 90 -124 121 -166 98 -29 -15 -28 -70 2
-97 32 -29 54 -39 119 -53 55 -11 59 -14 100 -73 30 -43 57 -69 88 -85 l45
-22 1801 2 1801 3 41 29 c23 16 67 60 98 97 53 65 59 69 98 69 50 0 120 31
135 58 20 37 14 71 -14 78 -37 9 -75 -11 -131 -67 -30 -30 -57 -49 -71 -49
-22 0 -23 4 -23 65 0 54 3 65 17 65 9 0 25 -7 35 -17 26 -23 32 -11 13 32 -14
36 -16 37 -33 21 -26 -23 -32 -20 -32 14 0 28 3 30 37 30 23 0 45 -7 59 -21
25 -23 36 -15 23 19 -8 21 -14 22 -109 22 -91 0 -118 -8 -90 -25 13 -8 13
-205 0 -205 -5 0 -10 -4 -10 -10 0 -5 25 -10 55 -10 30 0 55 -4 55 -8 0 -4
-17 -24 -37 -44 -76 -74 89 -68 -1933 -68 -2004 0 -1849 -5 -1902 63 l-26 34
43 21 c67 32 79 63 83 214 4 116 6 127 24 131 41 11 4 27 -63 27 -52 0 -69 -3
-69 -14z m4034 -284 c8 -13 -7 -30 -37 -41 -53 -20 -63 -14 -32 19 28 29 58
39 69 22z m-4165 -18 c15 -9 33 -25 40 -37 12 -19 11 -20 -20 -13 -39 7 -75
39 -65 55 9 14 13 14 45 -5z"/>
<path d="M2713 951 c-56 -26 -84 -80 -85 -165 -2 -76 22 -128 71 -162 38 -26
99 -32 145 -14 16 6 27 6 31 0 4 -6 10 -10 15 -10 11 0 36 78 27 86 -3 4 -21
-10 -40 -30 -79 -84 -177 -17 -177 122 0 55 21 119 46 143 34 32 87 29 123 -5
30 -29 57 -35 47 -10 -3 9 -6 21 -6 27 0 7 -5 19 -10 27 -9 13 -11 13 -19 1
-8 -12 -14 -13 -36 -3 -37 17 -84 14 -132 -7z"/>
<path d="M1240 847 c-66 -23 -101 -120 -68 -191 16 -37 87 -69 132 -60 44 8
86 39 86 64 0 10 5 22 10 25 24 15 6 25 -45 25 -30 0 -55 -4 -55 -10 0 -5 7
-10 15 -10 24 0 18 -47 -8 -64 -55 -36 -93 19 -85 122 4 43 10 60 28 74 30 24
67 17 96 -19 24 -28 40 -17 30 22 -4 16 -13 23 -28 22 -13 0 -34 3 -48 6 -14
3 -41 1 -60 -6z"/>
<path d="M3046 850 c-137 -42 -112 -250 31 -250 55 0 98 24 118 66 33 70 8
144 -57 174 -48 22 -51 22 -92 10z m58 -20 c31 -11 50 -74 41 -134 -9 -51 -30
-76 -66 -76 -42 0 -59 32 -59 110 0 66 10 92 40 103 8 3 16 6 17 6 1 1 13 -3
27 -9z"/>
<path d="M670 735 c-28 -75 -47 -115 -57 -115 -26 0 -7 -25 21 -28 39 -5 63 5
48 20 -7 7 -12 20 -12 30 0 15 9 18 59 18 46 0 60 -4 65 -17 4 -9 1 -20 -5
-24 -22 -13 2 -29 46 -29 48 0 63 11 40 30 -7 6 -30 61 -50 121 l-37 109 -37
0 -38 0 -43 -115z m93 8 l15 -53 -44 0 c-24 0 -44 4 -44 9 0 21 44 111 50 104
4 -4 14 -32 23 -60z"/>
<path d="M920 840 c0 -5 5 -10 10 -10 6 0 10 -42 10 -105 0 -63 -4 -105 -10
-105 -5 0 -10 -4 -10 -10 0 -6 40 -10 100 -10 88 0 100 2 110 19 13 26 13 31
-4 31 -8 0 -16 -7 -20 -15 -4 -11 -20 -15 -56 -15 l-50 0 0 65 c0 63 1 65 25
65 14 0 28 -7 31 -15 4 -8 10 -15 15 -15 12 0 11 23 -2 57 -10 27 -11 27 -24
9 -18 -25 -45 -14 -45 19 0 23 4 25 42 25 25 0 49 -7 60 -17 22 -19 32 -12 23
16 -6 19 -14 21 -106 21 -59 0 -99 -4 -99 -10z"/>
<path d="M1440 840 c0 -5 5 -10 10 -10 15 0 13 -203 -2 -218 -9 -9 12 -12 94
-12 101 0 106 1 111 22 8 30 1 35 -22 14 -13 -12 -32 -16 -62 -14 l-44 3 0 60
c0 55 2 60 23 63 13 2 25 -3 28 -12 3 -9 12 -16 19 -16 10 0 11 7 2 35 -10 34
-31 47 -39 23 -7 -21 -40 0 -36 24 2 19 10 24 45 26 33 2 44 -1 56 -18 17 -25
32 -11 22 20 -6 18 -15 20 -106 20 -59 0 -99 -4 -99 -10z"/>
<path d="M1700 841 c0 -6 5 -13 10 -16 6 -3 10 -50 10 -105 0 -79 -3 -99 -16
-104 -28 -11 -4 -26 41 -26 41 0 73 19 47 28 -15 5 -16 102 -1 102 23 0 45
-20 68 -63 25 -45 54 -67 91 -67 27 0 35 19 11 28 -17 6 -88 101 -79 106 54
34 58 38 58 66 0 48 -29 60 -142 60 -55 0 -98 -4 -98 -9z m164 -17 c19 -7 21
-55 4 -72 -7 -7 -29 -12 -50 -12 l-38 0 0 45 c0 45 0 45 34 45 19 0 41 -3 50
-6z"/>
<path d="M2163 836 c14 -11 17 -30 17 -114 0 -68 -4 -102 -12 -104 -6 -2 -8
-10 -4 -16 5 -8 36 -12 86 -12 74 0 81 2 96 25 21 31 11 44 -15 21 -12 -11
-31 -16 -53 -14 l-33 3 -3 98 c-2 80 0 98 13 103 33 13 12 24 -47 24 -55 -1
-61 -2 -45 -14z"/>
<path d="M2380 840 c0 -5 5 -10 10 -10 6 0 10 -42 10 -105 0 -63 -4 -105 -10
-105 -5 0 -10 -4 -10 -10 0 -6 42 -10 105 -10 58 0 105 4 105 9 0 5 3 16 6 25
4 10 1 16 -9 16 -8 0 -18 -7 -21 -16 -4 -11 -18 -14 -53 -12 l-48 3 -3 63 c-3
60 -2 62 21 62 14 0 30 -7 37 -15 20 -24 29 -17 20 15 -14 48 -21 55 -36 35
-18 -24 -46 -12 -42 17 2 19 10 24 46 26 33 2 47 -1 57 -15 16 -22 29 -12 20
16 -6 19 -14 21 -106 21 -59 0 -99 -4 -99 -10z"/>
<path d="M3240 841 c0 -5 7 -11 15 -15 12 -4 15 -24 15 -88 0 -98 12 -122 70
-138 46 -12 101 5 119 38 6 12 11 58 11 103 0 66 3 84 18 95 15 12 12 13 -25
14 -42 0 -57 -12 -28 -24 11 -4 15 -23 15 -78 0 -98 -14 -123 -65 -123 -32 0
-42 5 -52 25 -19 38 -17 159 4 182 15 17 14 18 -40 18 -32 0 -57 -4 -57 -9z"/>
<path d="M3530 841 c0 -5 7 -11 15 -15 23 -8 22 -191 -1 -204 -35 -19 -2 -32
82 -32 80 0 85 1 96 25 14 30 2 47 -16 22 -9 -11 -26 -17 -50 -17 l-36 0 0
105 c0 63 4 105 10 105 6 0 10 5 10 10 0 6 -25 10 -55 10 -30 0 -55 -4 -55 -9z"/>
<path d="M3700 831 c-13 -26 -13 -31 4 -31 8 0 16 7 20 15 3 9 18 15 36 15
l30 0 0 -104 c0 -71 -4 -106 -12 -108 -26 -9 6 -28 47 -28 45 0 69 15 41 26
-13 5 -16 25 -16 110 l0 104 29 0 c16 0 31 -6 35 -15 3 -8 12 -15 20 -15 13 0
14 4 4 25 -11 24 -14 25 -119 25 -97 0 -109 -2 -119 -19z"/>
<path d="M3970 841 c0 -6 5 -13 10 -16 6 -3 10 -50 10 -105 0 -79 -3 -99 -16
-104 -28 -11 -4 -26 41 -26 41 0 73 19 47 28 -15 5 -16 102 -1 102 23 0 45
-20 68 -63 25 -45 54 -67 91 -67 27 0 35 19 11 28 -17 6 -88 101 -79 106 54
34 58 38 58 66 0 48 -29 60 -142 60 -55 0 -98 -4 -98 -9z m164 -17 c19 -7 21
-55 4 -72 -7 -7 -29 -12 -50 -12 l-38 0 0 45 c0 45 0 45 34 45 19 0 41 -3 50
-6z"/>
<path d="M2001 741 c-8 -5 -11 -16 -8 -26 5 -13 18 -15 59 -13 46 3 53 6 56
26 3 20 -1 22 -45 22 -26 0 -54 -4 -62 -9z"/>
</g>
</svg>
