<?xml version="1.0" standalone="no"?>
<!DOCTYPE svg PUBLIC "-//W3C//DTD SVG 20010904//EN"
 "http://www.w3.org/TR/2001/REC-SVG-20010904/DTD/svg10.dtd">
<svg version="1.0" xmlns="http://www.w3.org/2000/svg"
 width="522.000000pt" height="140.000000pt" viewBox="0 0 522.000000 140.000000"
 preserveAspectRatio="xMidYMid meet">

<g transform="translate(0.000000,140.000000) scale(0.100000,-0.100000)"
fill="#000000" stroke="none">
<path d="M212 963 l3 -248 45 0 45 0 3 102 3 102 167 3 c140 2 173 6 206 22
102 51 102 191 0 242 -34 17 -66 19 -257 22 l-217 3 2 -248z m342 187 c71 -11
106 -39 106 -85 0 -68 -73 -95 -257 -95 l-93 0 0 89 c0 62 4 91 13 94 21 9
170 7 231 -3z"/>
<path d="M1107 1203 c-3 -5 -66 -113 -141 -241 -75 -128 -136 -238 -136 -243
0 -6 21 -9 47 -7 47 3 47 3 88 73 l42 70 159 3 160 2 37 -69 c20 -38 44 -72
53 -75 24 -9 82 -7 88 3 3 5 -58 117 -136 250 l-142 241 -58 0 c-31 0 -59 -3
-61 -7z m127 -175 l58 -108 -121 0 c-67 0 -121 3 -121 6 0 16 116 222 121 216
4 -4 32 -55 63 -114z"/>
<path d="M1692 963 l3 -248 45 0 45 0 3 196 2 196 198 -199 198 -199 50 3 49
3 3 248 2 247 -50 0 -50 0 0 -197 -1 -198 -194 198 -195 197 -55 0 -55 0 2
-247z"/>
<path d="M2550 966 c0 -186 3 -245 13 -249 20 -7 471 -9 490 -2 9 4 17 18 17
31 l0 24 -210 0 -210 0 0 85 0 85 195 0 195 0 0 30 0 30 -195 0 -196 0 3 78 3
77 208 3 207 2 0 25 0 25 -260 0 -260 0 0 -244z"/>
<path d="M3292 963 l3 -248 50 0 50 0 3 108 3 109 149 -4 c146 -3 150 -4 175
-29 27 -27 44 -80 45 -136 0 -39 22 -54 79 -51 45 1 45 1 30 29 -5 11 -15 48
-20 82 -12 73 -30 104 -70 121 l-30 13 39 17 c73 33 95 117 46 175 -43 51 -97
61 -341 61 l-213 0 2 -247z m398 188 c50 -10 80 -40 80 -80 0 -65 -77 -90
-272 -91 l-98 0 0 90 0 90 123 0 c67 -1 142 -5 167 -9z"/>
<path d="M4175 971 c-77 -132 -139 -244 -138 -248 3 -11 75 -15 89 -6 6 5 28
38 48 76 l38 67 158 0 159 0 41 -75 41 -75 50 0 c33 0 49 4 49 13 0 6 -63 118
-139 247 l-138 235 -59 3 -59 3 -140 -240z m259 64 c31 -57 56 -107 56 -110 0
-3 -54 -5 -121 -5 -66 0 -119 4 -117 9 12 31 113 211 119 211 4 0 32 -47 63
-105z"/>
<path d="M4902 963 l3 -248 48 -2 47 -2 0 250 0 249 -50 0 -50 0 2 -247z"/>
<path d="M200 550 c0 -20 7 -20 2405 -20 2398 0 2405 0 2405 20 0 20 -7 20
-2405 20 -2398 0 -2405 0 -2405 -20z"/>
<path d="M220 435 c0 0 -1 -55 -3 -123 l-2 -122 113 0 c109 0 112 1 112 23 0
21 -4 22 -82 22 l-83 0 -1 99 -2 99 -26 2 c-14 0 -26 1 -26 0z"/>
<path d="M3950 436 c0 -1 -1 -56 -3 -124 l-2 -122 30 0 30 0 0 120 c0 66 -2
120 -5 121 -11 2 -50 6 -50 5z"/>
<path d="M1144 390 c-42 -13 -65 -41 -71 -89 -5 -36 -2 -44 30 -76 31 -31 41
-35 85 -35 86 0 136 61 112 135 -18 56 -89 85 -156 65z m91 -55 c28 -27 30
-37 14 -68 -16 -29 -28 -37 -61 -37 -33 0 -68 31 -68 60 0 27 43 70 70 70 12
0 32 -11 45 -25z"/>
<path d="M1940 374 c0 -19 5 -22 38 -20 l37 1 0 -83 0 -82 27 0 c27 0 27 0 30
83 l3 82 33 -3 c28 -3 32 0 32 20 0 23 -2 23 -100 23 -96 0 -100 -1 -100 -21z"/>
<path d="M2270 389 c-46 -19 -70 -50 -70 -91 0 -50 13 -74 50 -93 82 -42 179
4 180 85 0 45 -23 78 -66 96 -38 16 -59 17 -94 3z m98 -56 c17 -23 15 -63 -5
-85 -20 -22 -70 -23 -95 -1 -26 23 -24 78 5 98 26 19 76 13 95 -12z"/>
<path d="M2994 386 c-82 -36 -86 -144 -7 -185 50 -25 140 -4 163 38 15 29 12
84 -6 110 -17 24 -71 51 -101 51 -10 -1 -32 -7 -49 -14z m104 -53 c31 -43 1
-103 -51 -103 -62 0 -90 67 -46 111 24 24 75 20 97 -8z"/>
<path d="M4485 391 l-90 -6 0 -98 0 -97 98 0 c94 0 97 1 97 23 0 21 -3 22 -70
19 l-70 -4 0 27 c0 27 1 27 45 23 42 -5 45 -4 45 17 0 21 -3 22 -45 17 -41 -4
-45 -3 -45 17 0 23 4 24 88 21 50 -1 52 0 52 24 0 14 -3 25 -7 24 -5 -1 -48
-4 -98 -7z"/>
<path d="M4755 391 l-90 -6 0 -98 0 -97 98 0 c94 0 97 1 97 23 0 21 -3 22 -70
19 l-70 -4 0 27 c0 26 2 27 45 23 40 -3 45 -1 45 17 0 18 -5 20 -46 16 -43 -3
-45 -2 -42 20 3 21 7 22 71 20 66 -2 67 -2 67 23 0 14 -3 25 -7 24 -5 -1 -48
-4 -98 -7z"/>
<path d="M573 378 c0 -7 -19 -51 -42 -97 -22 -46 -41 -86 -41 -88 0 -1 13 -3
29 -3 23 0 30 5 33 23 3 19 9 22 53 22 44 0 50 -3 53 -22 3 -19 10 -23 38 -23
19 0 34 2 34 4 0 2 -20 40 -45 84 -25 44 -45 87 -45 96 0 20 -67 23 -67 4z
m57 -100 c0 -5 -11 -8 -25 -8 -27 0 -31 10 -14 42 11 21 12 21 25 -3 7 -13 13
-27 14 -31z"/>
<path d="M798 290 l3 -100 74 0 c41 0 86 5 100 12 29 13 41 47 27 75 -5 10 -7
33 -4 52 7 50 -14 61 -117 61 l-86 0 3 -100z m152 45 c0 -11 -12 -15 -50 -15
-38 0 -50 4 -50 15 0 11 12 15 50 15 38 0 50 -4 50 -15z m5 -80 c0 -17 -8 -20
-52 -23 -51 -3 -53 -2 -53 23 0 25 2 26 53 23 44 -3 52 -6 52 -23z"/>
<path d="M1385 290 l0 -100 28 0 c25 0 27 3 27 40 0 34 3 40 21 40 24 0 58
-37 59 -62 0 -14 9 -18 41 -18 l41 0 -33 42 c-22 27 -29 43 -21 46 40 13 55
67 26 96 -12 12 -37 16 -102 16 l-87 0 0 -100z m153 43 c-2 -14 -15 -19 -51
-21 -42 -3 -47 -1 -47 17 0 18 6 21 51 21 43 0 50 -3 47 -17z"/>
<path d="M1735 380 c3 -5 -15 -50 -40 -100 l-45 -90 35 0 c20 0 34 4 31 9 -15
24 7 41 54 41 47 0 69 -17 54 -41 -3 -5 13 -9 35 -9 l39 0 -49 88 c-27 48 -47
93 -44 100 3 8 -8 12 -36 12 -23 0 -38 -4 -34 -10z m49 -76 c10 -27 7 -34 -19
-34 -28 0 -29 3 -15 31 13 23 26 24 34 3z"/>
<path d="M2508 290 l3 -100 27 0 c26 0 27 2 24 40 -4 37 -2 40 21 40 25 0 67
-44 67 -69 0 -6 16 -11 35 -11 38 0 44 10 19 30 -32 28 -37 50 -13 69 27 21
29 69 3 88 -11 8 -48 13 -103 13 l-86 0 3 -100z m150 41 c-2 -12 -16 -17 -51
-19 -40 -3 -47 0 -47 16 0 26 3 28 55 24 36 -3 45 -8 43 -21z"/>
<path d="M2795 290 l0 -100 30 0 30 0 0 100 0 100 -30 0 -30 0 0 -100z"/>
<path d="M3370 290 l0 -100 65 0 c111 0 155 31 155 111 0 20 -10 40 -29 60
-28 27 -34 29 -110 29 l-81 0 0 -100z m138 56 c18 -6 32 -32 32 -63 0 -27 -40
-53 -80 -53 l-40 0 0 58 c0 32 2 61 5 63 6 7 56 3 83 -5z"/>
<path d="M3665 290 l0 -100 30 0 30 0 -3 100 -3 100 -27 0 -27 0 0 -100z"/>
<path d="M4100 290 l0 -100 64 0 c81 0 123 15 141 51 24 45 19 87 -14 120 -28
27 -34 29 -110 29 l-81 0 0 -100z m152 43 c44 -39 6 -103 -62 -103 l-40 0 0
60 0 60 42 0 c24 0 49 -7 60 -17z"/>
<path d="M4950 235 c-18 -21 -5 -47 22 -43 26 3 37 36 16 49 -18 12 -24 11
-38 -6z"/>
</g>
</svg>
