<?xml version="1.0" encoding="UTF-8" standalone="no"?>
<!-- Created with Inkscape (http://www.inkscape.org/) by Marsupilami -->
<svg
   xmlns:svg="http://www.w3.org/2000/svg"
   xmlns="http://www.w3.org/2000/svg"
   version="1.0"
   width="1024"
   height="324"
   viewBox="0 0 219.68465 69.555367"
   id="svg2423"
   xml:space="preserve"><defs
     id="defs2426" /><g
     transform="matrix(1.25,0,0,-1.25,-262.205,533.52875)"
     id="g2432"><g
       transform="scale(0.1,0.1)"
       id="g2434"><path
         d="M 191.96875,0 C 188.60749,0.08625 185.25125,0.08625 182.40625,1.46875 C 177.83875,3.62875 174.57125,8.215 174.3125,13.3125 L 174.21875,29.90625 C 174.13125,31.8075 174.48875,33.61625 175.09375,35.34375 C 176.73125,40.097501 181.37625,43.98875 186.375,44.59375 C 192.58125,44.852501 199.14,44.8525 205.34375,44.59375 C 207.58624,44.680001 209.57375,44.05875 211.46875,43.28125 C 215.95,41.20875 219.39875,36.73125 219.65625,31.71875 L 219.6875,18.15625 C 219.6875,15.30375 219.80625,12.6925 219.03125,10.1875 C 217.65374,5.2625 212.655,0.94875 207.65625,0.34375 C 202.48499,-0.0012499988 197.22625,0 191.96875,0 z M 117.21875,1.15625 L 117.21875,4.375 C 118.38125,4.375 117.83875,4.15 119.46875,4.53125 C 120.99875,5.2675002 121.53,6.065 121.875,8.0625 L 121.875,38.59375 L 121.34375,39.78125 C 120.48125,40.991249 119.1225,41.6875 117.65625,41.6875 C 117.65625,42.723751 117.5825,42.8 117.5625,44.625 L 141.875,44.625 C 147.21874,44.36625 153.08,45.23125 157.5625,42.8125 C 162.21749,40.392501 165.30375,35.71625 165.5625,30.53125 L 165.5625,14.90625 C 165.47749,13.4375 165.15,12.13125 164.71875,10.75 C 162.7375,5.3075003 157.29875,1.4225 151.4375,1.25 L 117.21875,1.15625 z M 0,1.28125 L 0,4.03125 C 0.86125,4.03125 1.7175,4.03125 2.40625,4.375 C 3.7000001,5.06625 4.64,6.37375 4.8125,7.84375 L 4.8125,38 L 4.40625,39.5625 C 3.545,41.12 1.9975,41.8925 0.1875,41.71875 C 0.1875,42.75625 0.0775,43.79125 0.25,44.65625 L 23.625,44.65625 L 23.625,41.875 C 22.85,41.875002 21.9625,41.8075 21.1875,41.375 C 20.067501,40.683751 19.14125,39.4525 18.96875,38.15625 L 18.96875,28.15625 L 19.125,28.0625 L 26.28125,28.0625 C 30.7625,29.098751 31.79375,33.9325 33,37.5625 C 34.035002,40.327501 35.3425,43.705 38.53125,44.65625 L 52.65625,44.5625 L 52.65625,41.625 C 51.191249,41.797499 49.8075,41.09375 49.03125,39.96875 C 47.307502,37.203751 46.715,34.0075 45.25,31.15625 C 44.042501,28.476251 41.02375,26.50875 38.09375,26.25 C 41.109999,25.991249 43.9625,24.68625 45.6875,22.09375 C 48.788748,18.0325 48.17875,11.48375 45.9375,7.25 C 43.351249,3.0150001 38.88125,1.45375 34.3125,1.28125 L 0,1.28125 z M 69.90625,1.34375 L 61.28125,32.53125 C 60.4175,35.0375 60.32375,37.785 59.03125,40.03125 C 58.17,41.241252 56.88,41.8675 55.5,41.78125 L 55.5,44.625 C 55.521249,44.60375 77.46875,44.64625 77.46875,44.65625 L 77.46875,41.90625 C 76.436252,42.1 75.31375,41.92875 74.625,41.0625 C 74.021251,40.545 73.875,39.7775 73.875,39 L 75.59375,32 L 75.84375,31.46875 L 94,31.46875 C 94.474363,32.995626 94.7617,34.588725 95.0625,36.15625 C 95.233753,37.711251 96.26375,39.8525 94.625,41.0625 C 93.934998,41.84125 93.01125,41.78125 92.0625,41.78125 C 91.804998,42.558749 91.96125,43.675 91.875,44.625 C 91.853749,44.60375 114.1875,44.63625 114.1875,44.625 L 114.1875,41.78125 C 112.4625,42.126249 111.01875,41 110.15625,39.53125 L 100.375,1.34375 L 69.90625,1.34375 z M 196.3125,4.28125 C 198.82249,4.1659912 201.40859,4.6664062 203.1875,6.125 L 204.8125,7.9375 C 205.32875,9.06 205.9525,10.28 205.78125,11.75 L 205.6875,34.3125 C 205.25626,36.731251 203.44375,38.97875 201.03125,39.84375 C 198.01376,40.621248 194.03875,40.6875 191.28125,39.21875 C 189.47125,37.922502 188.01625,36.045 187.84375,33.625 L 187.84375,10.8125 C 188.18625,8.4774995 189.735,6.1325 192.0625,5.09375 C 193.32297,4.6404687 194.80651,4.3504053 196.3125,4.28125 z M 26.40625,5.53125 C 29.669519,5.5217163 31.747656,6.0929687 33.6875,9.0625 C 34.893749,11.915 34.74375,15.54375 34.3125,18.65625 C 33.709998,20.98875 31.46875,23.06 28.96875,23.40625 C 25.78,23.665001 22.3375,23.46875 19.0625,23.46875 L 19.0625,5.78125 C 22.080312,5.756875 24.448289,5.5369702 26.40625,5.53125 z M 146.5,5.75 C 148.16874,5.9237501 149.80875,6.8825 150.84375,8.4375 C 151.44625,9.3025001 151.61,10.3375 151.78125,11.375 L 151.78125,34.78125 C 151.61,36.508749 150.65375,38.1425 149.1875,39.09375 C 148.0675,39.784999 146.78625,40.12 145.40625,40.125 C 141.24751,40.147499 139.0875,40.25 135.8125,40.25 L 135.84375,39.28125 L 135.84375,5.84375 L 146.5,5.75 z M 84.78125,5.96875 C 85.696875,5.9620313 86.69125,5.963125 88,6 L 92.8125,27 L 76.875,27 L 81.96875,6 C 83.030002,5.9900001 83.865625,5.9754687 84.78125,5.96875 z M 4.59375,54.65625 C 2.205,54.65625 0.40625001,56.030001 0.40625,58.5625 C 0.40625,62.85875 6.8125001,62.48875 6.8125,65.65625 C 6.8125,67.3575 5.6912499,67.968748 4.25,67.96875 C 3.085,67.96875 1.875,67.346247 1.875,65.40625 L 1.875,65 L 0.09375,65 C 0.05375,66.365 0.044999905,69.6025 4.25,69.5625 C 6.6,69.5625 8.65625,68.570002 8.65625,65.5625 C 8.65625,61.03 2.28125,61.489999 2.28125,58.34375 C 2.28125,56.79875 3.3825002,56.249999 4.46875,56.25 C 6.185,56.25 6.6762501,57.28 6.65625,58.84375 L 8.5625,58.84375 C 8.68,55.93375 7.1999999,54.656251 4.59375,54.65625 z M 20.15625,54.96875 L 23.625,69.25 L 25.84375,69.25 L 28.71875,56.875 L 28.75,56.875 L 31.46875,69.25 L 33.6875,69.25 L 37.4375,54.96875 L 35.5625,54.96875 L 32.65625,67.34375 L 32.625,67.34375 L 30.03125,54.96875 L 27.6875,54.96875 L 24.8125,67.34375 L 24.78125,67.34375 L 22.09375,54.96875 L 20.15625,54.96875 z M 49.59375,54.96875 L 49.59375,69.25 L 51.40625,69.25 L 51.40625,54.96875 L 49.59375,54.96875 z M 63.6875,54.96875 L 63.6875,56.5625 L 67.4375,56.5625 L 67.4375,69.25 L 69.25,69.25 L 69.25,56.5625 L 73,56.5625 L 73,54.96875 L 63.6875,54.96875 z M 84.15625,54.96875 L 84.15625,56.5625 L 90.8125,56.5625 L 90.8125,56.59375 L 83.90625,67.1875 L 83.90625,69.25 L 92.8125,69.25 L 92.8125,67.6875 L 85.59375,67.6875 L 92.65625,56.78125 L 92.65625,54.96875 L 84.15625,54.96875 z M 105.09375,54.96875 L 105.09375,69.25 L 112.53125,69.25 L 112.53125,67.6875 L 106.90625,67.6875 L 106.90625,62.71875 L 112.03125,62.71875 L 112.03125,61.15625 L 106.90625,61.15625 L 106.90625,56.5625 L 112.4375,56.5625 L 112.4375,54.96875 L 105.09375,54.96875 z M 125.09375,54.96875 L 125.09375,69.25 L 126.90625,69.25 L 126.90625,62.6875 L 129.03125,62.6875 C 129.645,62.687501 131.05125,62.7575 131.1875,64.5 C 131.34624,66.4 131.20625,68.26 131.71875,69.25 L 133.625,69.25 C 133.34875,68.35875 133.14625,66.145 133.125,65.53125 C 133.02626,62.662499 132.45125,62.1 130.8125,61.84375 L 130.8125,61.78125 C 132.49124,61.483751 133.40625,60.21125 133.40625,58.53125 C 133.40625,56.75 132.52625,54.96875 130,54.96875 L 125.09375,54.96875 z M 146.25,54.96875 L 146.25,69.25 L 153.3125,69.25 L 153.3125,67.6875 L 148.0625,67.6875 L 148.0625,54.96875 L 146.25,54.96875 z M 168.40625,54.96875 L 163.90625,69.25 L 165.71875,69.25 L 166.78125,65.84375 L 172.3125,65.84375 L 173.3125,69.25 L 175.375,69.25 L 170.71875,54.96875 L 168.40625,54.96875 z M 187.53125,54.96875 L 187.53125,69.25 L 189.125,69.25 L 189.125,56.875 L 189.1875,56.875 L 194.8125,69.25 L 197.28125,69.25 L 197.28125,54.96875 L 195.6875,54.96875 L 195.6875,67.1875 L 195.625,67.1875 L 190.09375,54.96875 L 187.53125,54.96875 z M 210.78125,54.96875 L 210.78125,69.25 L 214.0625,69.25 C 216.55001,69.25 218.01,68.63125 218.78125,67.40625 C 219.37374,66.456247 219.625,64.7025 219.625,61.65625 C 219.625,61.198751 219.57125,58.36375 219,57.15625 C 218.28874,55.63375 217.00375,54.96875 215.1875,54.96875 L 210.78125,54.96875 z M 126.90625,56.5625 L 129.625,56.5625 C 131.0275,56.5625 131.5625,57.69 131.5625,58.71875 C 131.56249,59.966249 130.9275,61.09375 129.625,61.09375 L 126.90625,61.09375 L 126.90625,56.5625 z M 212.625,56.5625 L 215,56.5625 C 216.895,56.5625 217.78125,57.61 217.78125,60.5 L 217.78125,63.40625 C 217.78125,66.731248 216.87,67.6875 214.34375,67.6875 L 212.625,67.6875 L 212.625,56.5625 z M 169.46875,56.65625 L 169.53125,56.65625 L 171.8125,64.28125 L 167.25,64.28125 L 169.46875,56.65625 z "
         transform="matrix(8,0,0,-8,2097.64,4268.23)"
         style="fill:#231f20;fill-opacity:1;fill-rule:evenodd;stroke:none"
         id="path2436" /><g
         transform="scale(0.998742,1.00126)"
         id="g2460" /><g
         transform="scale(0.998742,1.00126)"
         id="g2468" /><path
         d="M 2927.75,4463.77 L 2960.8,4428.66 L 2960.8,4748.52 L 2927.75,4720.57 L 2927.75,4463.77"
         style="fill:#ffffff;fill-opacity:1;fill-rule:evenodd;stroke:none"
         id="path2472" /><g
         transform="scale(0.998742,1.00126)"
         id="g2476" /><path
         d="M 2956.09,4425.2 C 2956.09,4425.2 2964.09,4425.1 2966.36,4425.25 C 2968.63,4425.39 2966.36,4422.08 2966.36,4422.08 L 2961.57,4416.43 C 2961.57,4416.43 2950.95,4421.14 2956.09,4425.2"
         style="fill:#ffffff;fill-opacity:1;fill-rule:evenodd;stroke:none"
         id="path2480" /></g></g></svg>
