<?xml version="1.0" standalone="no"?>
<!DOCTYPE svg PUBLIC "-//W3C//DTD SVG 20010904//EN"
 "http://www.w3.org/TR/2001/REC-SVG-20010904/DTD/svg10.dtd">
<svg version="1.0" xmlns="http://www.w3.org/2000/svg"
 width="317.000000pt" height="308.000000pt" viewBox="100 100 140 140"
 preserveAspectRatio="xMidYMid meet">

<g transform="translate(0.000000,308.000000) scale(0.100000,-0.100000)"
fill="#000000" stroke="none">
<path d="M484 1650 c-11 -4 -33 -22 -47 -40 -21 -24 -27 -42 -27 -78 0 -26 6
-58 13 -72 17 -34 74 -70 112 -70 38 0 95 36 112 70 16 32 16 98 0 130 -27 54
-106 83 -163 60z m106 -60 c27 -27 35 -65 20 -101 -15 -34 -37 -49 -75 -49
-38 0 -60 15 -75 49 -24 60 14 121 75 121 22 0 43 -8 55 -20z"/>
<path d="M749 1637 c-42 -28 -59 -60 -59 -112 0 -99 97 -163 180 -120 17 9 30
11 30 5 0 -5 9 -10 20 -10 18 0 20 7 20 65 l0 65 -55 0 c-48 0 -55 -2 -55 -20
0 -16 7 -20 30 -20 17 0 30 -4 30 -8 0 -19 -39 -42 -72 -42 -47 0 -78 34 -78
84 0 48 14 74 47 87 31 12 88 -4 97 -27 3 -9 15 -14 27 -12 18 2 22 10 23 41
1 32 -2 37 -21 37 -13 0 -23 -4 -23 -9 0 -6 -12 -3 -27 5 -40 20 -75 17 -114
-9z"/>
<path d="M2907 1640 c-20 -16 -27 -30 -27 -55 0 -39 16 -54 78 -76 54 -18 72
-40 53 -63 -20 -24 -57 -19 -79 9 -31 39 -52 33 -52 -16 0 -36 2 -40 23 -38
12 1 34 -1 50 -6 57 -15 117 22 117 73 0 36 -19 53 -92 86 -61 26 -70 39 -39
56 31 16 50 12 76 -16 32 -35 55 -26 55 21 0 33 -2 35 -32 35 -18 -1 -49 2
-68 5 -27 5 -41 2 -63 -15z"/>
<path d="M140 1630 c0 -11 7 -20 15 -20 12 0 15 -16 15 -85 0 -69 -3 -85 -15
-85 -8 0 -15 -9 -15 -20 0 -18 7 -20 55 -20 48 0 55 2 55 20 0 11 -7 20 -15
20 -9 0 -15 10 -15 26 0 23 3 25 32 22 27 -2 37 -11 56 -45 21 -38 28 -43 58
-43 27 0 34 4 34 20 0 13 -7 20 -18 20 -10 0 -25 12 -34 28 -15 25 -15 29 3
51 26 32 24 77 -6 106 -22 23 -32 25 -115 25 -83 0 -90 -1 -90 -20z m174 -42
c18 -29 -4 -53 -53 -56 l-41 -3 0 41 0 41 41 -3 c27 -2 46 -9 53 -20z"/>
<path d="M990 1631 c0 -10 7 -21 15 -25 12 -4 15 -24 15 -86 0 -64 -3 -80 -15
-80 -8 0 -15 -9 -15 -20 0 -19 7 -20 105 -20 l105 0 0 38 c0 31 -4 38 -21 39
-14 1 -23 -5 -26 -18 -5 -17 -13 -20 -47 -17 -36 3 -41 6 -44 31 -3 25 -1 27
32 27 32 0 36 3 36 25 0 22 -4 25 -36 25 -33 0 -35 2 -32 28 3 24 8 27 44 30
35 3 42 0 47 -17 3 -13 13 -21 26 -21 18 0 21 6 21 40 l0 40 -105 0 c-96 0
-105 -2 -105 -19z"/>
<path d="M1250 1631 c0 -10 7 -21 15 -25 12 -4 15 -23 15 -81 0 -58 -3 -77
-15 -81 -8 -4 -15 -15 -15 -25 0 -16 8 -19 50 -19 40 0 50 3 50 16 0 9 -7 22
-17 29 -25 18 -9 45 26 45 24 0 34 -7 53 -42 19 -35 29 -44 56 -46 26 -3 32 0
32 16 0 11 -8 22 -17 24 -10 3 -24 17 -32 31 -12 22 -12 28 3 42 25 25 29 60
12 93 -20 38 -31 42 -132 42 -76 0 -84 -2 -84 -19z m168 -33 c33 -33 -3 -72
-61 -66 -25 2 -33 8 -35 26 -6 40 5 52 46 52 21 0 43 -5 50 -12z"/>
<path d="M1630 1630 c0 -13 7 -20 20 -20 18 0 20 -7 20 -85 0 -78 -2 -85 -20
-85 -13 0 -20 -7 -20 -20 0 -18 7 -20 88 -20 63 0 94 4 110 16 50 35 67 120
36 174 -28 46 -63 60 -153 60 -74 0 -81 -2 -81 -20z m183 -51 c9 -12 17 -38
17 -59 0 -48 -38 -83 -84 -78 -31 3 -31 3 -34 72 -2 38 0 76 3 84 8 21 75 8
98 -19z"/>
<path d="M1900 1630 c0 -11 5 -20 10 -20 6 0 10 -30 10 -70 0 -81 13 -116 51
-136 36 -18 73 -18 109 1 42 21 50 43 50 129 0 61 3 76 15 76 8 0 15 9 15 20
0 18 -7 20 -55 20 -48 0 -55 -2 -55 -20 0 -11 7 -20 15 -20 12 0 15 -15 15
-73 0 -82 -9 -97 -55 -97 -46 0 -55 15 -55 97 0 58 3 73 15 73 8 0 15 9 15 20
0 17 -7 20 -50 20 -43 0 -50 -3 -50 -20z"/>
<path d="M2190 1630 c0 -11 7 -20 15 -20 12 0 15 -16 15 -85 0 -69 -3 -85 -15
-85 -8 0 -15 -9 -15 -20 0 -19 7 -20 95 -20 83 0 98 3 116 21 17 17 20 28 14
57 -3 21 -6 57 -5 81 0 24 -7 54 -15 67 -14 22 -22 24 -110 24 -88 0 -95 -1
-95 -20z m170 -35 c22 -27 4 -45 -45 -45 -43 0 -45 1 -45 30 0 28 2 30 39 30
22 0 44 -6 51 -15z m3 -106 c19 -31 1 -49 -48 -49 -45 0 -45 0 -45 36 0 35 0
35 41 32 25 -2 46 -10 52 -19z"/>
<path d="M2440 1630 c0 -11 7 -20 15 -20 12 0 15 -15 15 -76 0 -86 8 -108 50
-129 36 -19 73 -19 109 -1 38 20 51 55 51 136 0 56 3 70 15 70 8 0 15 9 15 20
0 18 -7 20 -55 20 -48 0 -55 -2 -55 -20 0 -11 7 -20 15 -20 12 0 15 -15 15
-73 0 -82 -9 -97 -55 -97 -46 0 -55 15 -55 97 0 58 3 73 15 73 8 0 15 9 15 20
0 18 -7 20 -55 20 -48 0 -55 -2 -55 -20z"/>
<path d="M2730 1630 c0 -11 7 -20 15 -20 12 0 15 -16 15 -85 0 -69 -3 -85 -15
-85 -8 0 -15 -9 -15 -20 0 -18 7 -20 55 -20 48 0 55 2 55 20 0 11 -7 20 -15
20 -12 0 -15 16 -15 85 0 69 3 85 15 85 8 0 15 9 15 20 0 18 -7 20 -55 20 -48
0 -55 -2 -55 -20z"/>
</g>
</svg>
