<?xml version="1.0" standalone="no"?>
<!DOCTYPE svg PUBLIC "-//W3C//DTD SVG 20010904//EN"
 "http://www.w3.org/TR/2001/REC-SVG-20010904/DTD/svg10.dtd">
<svg version="1.0" xmlns="http://www.w3.org/2000/svg"
 width="939.000000pt" height="254.000000pt" viewBox="0 0 939.000000 254.000000"
 preserveAspectRatio="xMidYMid meet">

<g transform="translate(0.000000,254.000000) scale(0.100000,-0.100000)"
fill="#000000" stroke="none">
<path d="M4241 1974 c-18 -23 -21 -36 -16 -69 12 -73 65 -275 90 -342 34 -90
34 -91 -25 -85 -56 5 -80 -8 -80 -42 0 -11 16 -69 37 -128 l36 -107 -35 -98
c-58 -159 -61 -172 -48 -188 17 -21 77 -35 104 -25 18 7 33 35 66 127 98 269
93 258 122 261 15 2 63 -6 107 -18 64 -18 81 -26 86 -43 20 -75 31 -99 63
-132 86 -89 203 -110 298 -55 69 39 125 105 159 187 15 37 32 72 37 77 4 6 8
-40 8 -102 0 -129 14 -176 56 -192 35 -14 100 17 144 66 39 45 87 140 104 207
7 29 19 52 26 52 10 0 13 -30 14 -120 2 -134 21 -198 70 -230 35 -23 58 -13
105 50 44 58 66 68 76 35 8 -25 55 -50 94 -50 18 0 46 13 73 33 68 52 66 51
84 13 31 -65 84 -68 160 -9 l35 26 22 -27 c29 -36 87 -44 157 -21 28 9 53 15
55 14 2 -2 -26 -40 -62 -84 -101 -122 -209 -280 -250 -362 -61 -124 -56 -230
12 -259 54 -22 97 -3 179 79 112 112 190 288 232 518 17 93 18 95 77 157 63
65 77 67 77 9 0 -18 11 -40 30 -59 27 -27 36 -30 71 -25 23 3 67 23 102 46
l61 40 34 -40 c50 -59 69 -54 168 43 l84 82 0 -72 c0 -59 4 -76 20 -92 11 -11
25 -20 30 -20 32 0 120 59 243 161 l37 31 0 -72 c0 -39 5 -80 10 -91 25 -45
114 -5 204 91 26 28 49 50 52 50 3 0 2 -31 -1 -68 -12 -117 21 -120 178 -16
53 36 101 63 106 59 5 -3 12 -18 16 -35 8 -38 65 -87 111 -96 56 -10 125 3
169 34 75 51 118 181 92 276 l-8 29 151 -6 c83 -4 194 -12 247 -18 95 -11 97
-11 115 11 23 29 23 55 -2 80 -19 19 -33 20 -317 20 -350 0 -343 1 -478 -118
-92 -81 -212 -168 -221 -160 -3 4 6 51 20 107 14 55 26 109 26 120 0 22 -25
51 -45 51 -21 0 -111 -86 -158 -153 -47 -66 -125 -143 -134 -133 -3 3 2 53 12
111 15 86 16 112 6 145 -10 32 -16 40 -36 40 -19 0 -40 -20 -95 -95 -78 -103
-188 -211 -203 -196 -5 5 -2 43 7 93 26 137 18 188 -28 188 -29 0 -49 -22
-133 -144 -37 -54 -77 -105 -89 -113 -37 -24 -62 8 -84 109 -24 109 -41 143
-80 157 -54 18 -135 -27 -272 -152 -64 -59 -121 -107 -127 -107 -6 0 -11 18
-11 40 0 65 -20 139 -47 170 -27 33 -104 61 -145 53 -40 -8 -92 -69 -151 -177
-30 -55 -63 -106 -75 -114 -19 -12 -22 -11 -36 16 -8 16 -20 60 -26 97 -19
117 -59 185 -109 185 -38 0 -123 -53 -164 -100 -19 -23 -63 -86 -98 -141 -39
-60 -70 -98 -78 -97 -34 7 -36 111 -4 254 24 108 8 125 -74 82 -43 -23 -43
-23 -90 -4 -79 30 -107 31 -132 5 -28 -30 -27 -61 6 -116 25 -43 26 -49 14
-92 -16 -61 -51 -97 -79 -82 -31 16 -37 69 -22 183 16 115 11 126 -43 109 -31
-10 -42 -9 -81 9 -54 24 -90 19 -113 -16 -23 -35 -19 -72 11 -103 31 -32 32
-52 5 -111 -48 -107 -136 -153 -226 -119 -33 12 -73 47 -73 64 0 6 28 17 62
23 72 13 103 33 130 82 25 46 19 112 -13 147 -74 79 -171 68 -278 -32 l-49
-46 -57 20 c-75 27 -105 47 -105 72 0 11 18 80 40 154 45 150 45 154 27 180
-25 33 -60 12 -112 -66 -25 -38 -52 -68 -58 -66 -31 10 -97 186 -84 221 9 22
44 21 347 -9 561 -55 953 -71 997 -40 25 17 41 81 25 97 -5 5 -90 14 -188 18
-165 9 -683 33 -954 45 -63 3 -158 8 -211 11 l-96 6 -22 -28z m697 -590 c47
-33 11 -84 -61 -84 -55 0 -60 24 -14 67 42 38 45 39 75 17z m2094 -51 c34 -30
14 -138 -30 -162 -92 -49 -112 82 -24 156 32 27 31 27 54 6z m-968 -9 c3 -9 6
-33 6 -54 0 -63 -70 -129 -105 -100 -33 27 -10 109 41 149 32 25 50 27 58 5z
m476 -13 c5 -11 10 -49 10 -84 0 -81 -23 -117 -75 -117 -53 0 -69 47 -43 132
22 74 84 113 108 69z m1938 -13 c7 -7 12 -33 12 -59 0 -64 -28 -99 -79 -99
-20 0 -42 5 -49 12 -28 28 -4 100 45 137 32 23 54 26 71 9z m-1984 -495 c-18
-102 -82 -224 -146 -278 -63 -53 -76 -19 -29 73 44 85 156 241 174 242 4 0 5
-17 1 -37z"/>
<path d="M980 1932 c-138 -89 -298 -219 -326 -267 -25 -44 -26 -49 -28 -249
-2 -173 -5 -208 -19 -230 -21 -32 -54 -34 -99 -6 -53 32 -90 27 -132 -20 -20
-22 -36 -49 -36 -59 0 -27 73 -87 128 -105 149 -51 278 38 312 215 7 33 8 120
4 224 -8 203 -18 182 155 314 158 120 191 152 191 184 0 27 -24 47 -57 47 -10
0 -52 -22 -93 -48z"/>
<path d="M1613 1937 c-55 -40 -125 -131 -164 -212 -53 -108 -79 -217 -87 -359
l-7 -120 -53 -43 c-54 -44 -95 -55 -106 -27 -3 9 -6 49 -6 90 0 149 -58 188
-182 122 -134 -71 -246 -257 -209 -347 30 -72 133 -67 244 11 16 11 30 19 31
17 2 -2 11 -18 20 -36 36 -72 75 -63 199 43 l75 64 27 -82 c34 -105 61 -158
81 -158 21 0 80 28 94 46 9 10 3 37 -24 114 -20 56 -39 125 -42 153 -6 52 -5
54 50 127 176 234 234 485 136 590 -34 36 -38 36 -77 7z m19 -153 c24 -51 -34
-217 -103 -295 l-30 -34 5 70 c8 117 71 285 107 285 5 0 15 -12 21 -26z m-542
-513 c-1 -40 -33 -104 -69 -134 -35 -29 -40 -31 -65 -21 -31 12 -15 97 27 143
59 64 107 69 107 12z"/>
<path d="M2810 1931 c-5 -11 -10 -29 -10 -40 0 -24 -66 -370 -76 -394 -4 -10
-13 -16 -23 -13 -304 90 -327 63 -221 -265 46 -142 71 -191 104 -208 52 -28
89 22 171 229 l41 105 44 -2 c73 -3 74 -6 39 -68 -57 -102 -58 -181 -1 -238
83 -83 242 -19 305 122 16 36 18 60 15 123 -4 70 -3 78 13 78 26 0 47 -47 70
-158 24 -113 61 -190 97 -199 16 -4 46 6 98 32 l75 38 32 -30 c67 -64 100 -67
230 -22 84 29 95 30 137 20 25 -7 55 -14 66 -17 24 -6 64 29 64 56 0 19 -42
45 -88 55 -19 4 -75 0 -132 -10 -84 -14 -103 -15 -126 -3 -15 7 -29 18 -31 23
-1 6 25 28 58 49 86 56 109 116 73 192 -23 48 -64 67 -131 62 -40 -4 -63 -12
-91 -34 -50 -40 -92 -124 -92 -184 0 -34 -5 -52 -19 -64 -47 -43 -86 10 -106
144 -14 90 -26 120 -49 120 -7 0 -35 11 -63 25 l-51 26 -87 -26 c-133 -38
-314 -31 -301 13 26 84 78 321 83 378 5 67 4 72 -18 87 -33 24 -86 22 -99 -2z
m-172 -561 c41 -19 43 -21 37 -52 -20 -99 -54 -163 -75 -142 -9 9 -50 172 -50
199 0 21 36 18 88 -5z m1112 -15 c24 -28 -17 -80 -77 -99 -21 -7 -23 -4 -23
27 0 64 66 113 100 72z m-668 -62 c29 -26 25 -104 -8 -142 -28 -33 -78 -43
-102 -19 -31 31 -1 137 47 163 34 18 41 18 63 -2z"/>
<path d="M2044 1432 c-40 -13 -89 -55 -162 -139 -41 -45 -77 -83 -82 -83 -5 0
-18 42 -30 94 -12 52 -27 100 -34 106 -18 14 -44 4 -83 -33 -42 -39 -42 -66
-3 -217 57 -219 56 -219 205 -34 112 139 200 223 217 206 6 -6 -4 -28 -23 -57
-37 -54 -69 -150 -69 -205 0 -83 85 -103 196 -48 l64 32 27 -26 c40 -38 73
-43 125 -20 80 35 103 92 39 92 -52 0 -66 36 -63 152 2 102 -13 166 -40 170
-7 1 -51 2 -98 3 -47 0 -103 3 -125 7 -22 4 -49 4 -61 0z m207 -184 c-15 -50
-82 -121 -108 -116 -13 2 -19 14 -21 38 -4 43 28 94 78 128 30 20 35 21 49 8
12 -13 13 -22 2 -58z"/>
</g>
</svg>
