<?xml version="1.0" encoding="UTF-8" standalone="no"?>
<!-- Created with Inkscape (http://www.inkscape.org/) -->

<svg
   xmlns:dc="http://purl.org/dc/elements/1.1/"
   xmlns:cc="http://creativecommons.org/ns#"
   xmlns:rdf="http://www.w3.org/1999/02/22-rdf-syntax-ns#"
   xmlns:svg="http://www.w3.org/2000/svg"
   xmlns="http://www.w3.org/2000/svg"
   xmlns:sodipodi="http://sodipodi.sourceforge.net/DTD/sodipodi-0.dtd"
   xmlns:inkscape="http://www.inkscape.org/namespaces/inkscape"
   width="67.07"
   height="12.79"
   id="svg10152"
   version="1.1"
   inkscape:version="0.48.1 "
   sodipodi:docname="Neues Dokument 5">
  <defs
     id="defs10154" />
  <sodipodi:namedview
     id="base"
     pagecolor="#ffffff"
     bordercolor="#666666"
     borderopacity="1.0"
     inkscape:pageopacity="0.0"
     inkscape:pageshadow="2"
     inkscape:zoom="13.738259"
     inkscape:cx="33.534995"
     inkscape:cy="6.3950046"
     inkscape:document-units="px"
     inkscape:current-layer="layer1"
     showgrid="false"
     fit-margin-top="0"
     fit-margin-left="0"
     fit-margin-right="0"
     fit-margin-bottom="0"
     inkscape:window-width="1024"
     inkscape:window-height="678"
     inkscape:window-x="-4"
     inkscape:window-y="-4"
     inkscape:window-maximized="1" />
  <metadata
     id="metadata10157">
    <rdf:RDF>
      <cc:Work
         rdf:about="">
        <dc:format>image/svg+xml</dc:format>
        <dc:type
           rdf:resource="http://purl.org/dc/dcmitype/StillImage" />
        <dc:title></dc:title>
      </cc:Work>
    </rdf:RDF>
  </metadata>
  <g
     inkscape:label="Ebene 1"
     inkscape:groupmode="layer"
     id="layer1"
     transform="translate(-164.60598,-287.82392)">
    <g
       id="g6084"
       transform="matrix(1.25,0,0,-1.25,178.6291,289.87351)">
      <path
         inkscape:connector-curvature="0"
         d="m 0,0 0.341,-0.331 c 0.807,-0.87 0.765,-1.865 0.765,-2.196 l 0,-4.435 c 0,-0.332 -0.298,-0.581 -0.596,-0.581 l -1.531,0 c -0.298,0 -0.553,0.249 -0.553,0.581 l 0,4.393 c -0.127,0.787 -0.595,0.952 -1.148,0.912 -0.17,0.496 -0.341,0.912 -0.638,1.326 -0.595,0.58 -0.51,0.373 -0.681,0.58 0.043,0 0.341,0.249 0.766,0.373 0.34,0.083 0.978,0.124 1.404,0.083 C -0.723,0.539 -0.341,0.249 0,0"
         style="fill:#1a171c;fill-opacity:1;fill-rule:evenodd;stroke:none"
         id="path6086" />
    </g>
    <g
       id="g6088"
       transform="matrix(1.25,0,0,-1.25,182.29785,289.25226)">
      <path
         inkscape:connector-curvature="0"
         d="m 0,0 1.488,0 c 0.341,0 0.596,-0.249 0.596,-0.58 l 0,-6.879 C 2.084,-7.791 1.829,-8.04 1.488,-8.04 L 0,-8.04 c -0.341,0 -0.596,0.249 -0.596,0.581 l 0,6.879 C -0.596,-0.249 -0.341,0 0,0"
         style="fill:#1a171c;fill-opacity:1;fill-rule:evenodd;stroke:none"
         id="path6090" />
    </g>
    <g
       id="g6092"
       transform="matrix(1.25,0,0,-1.25,192.87785,289.25226)">
      <path
         inkscape:connector-curvature="0"
         d="m 0,0 1.53,0 c 0.298,0 0.552,-0.249 0.552,-0.58 l 0,-5.346 C 2.041,-6.258 1.998,-6.507 1.828,-6.796 1.573,-7.21 1.232,-7.584 0.892,-7.833 0.467,-8.123 -0.044,-8.206 -0.384,-8.247 l -0.808,0 0,2.321 c 0,0 0.595,0.082 0.595,0.621 l 0,4.725 C -0.597,-0.249 -0.341,0 0,0"
         style="fill:#1a171c;fill-opacity:1;fill-rule:evenodd;stroke:none"
         id="path6094" />
    </g>
    <g
       id="g6096"
       transform="matrix(1.25,0,0,-1.25,189.10285,289.35601)">
      <path
         inkscape:connector-curvature="0"
         d="m 0,0 -1.532,0 c -0.339,0 -0.594,-0.249 -0.594,-0.58 l 0,-5.346 c 0.041,-0.332 0.084,-0.581 0.297,-0.87 0.255,-0.374 0.553,-0.788 0.936,-0.995 0.425,-0.29 0.893,-0.415 1.234,-0.415 l 0.807,0 0,2.322 c 0,0 -0.552,0.082 -0.552,0.579 l 0,0.664 -0.043,4.061 C 0.553,-0.249 0.298,0 0,0"
         style="fill:#1a171c;fill-opacity:1;fill-rule:evenodd;stroke:none"
         id="path6098" />
    </g>
    <g
       id="g6100"
       transform="matrix(1.25,0,0,-1.25,170.17535,288.99226)">
      <path
         inkscape:connector-curvature="0"
         d="M 0,0 C 1.957,0 3.531,-1.575 3.531,-3.399 L 3.488,-7.626 c 0,-0.331 -0.255,-0.58 -0.553,-0.58 l -1.446,0 c -0.298,0 -0.553,0.249 -0.553,0.58 l 0,4.352 c -0.128,0.331 -0.595,0.747 -0.979,0.747 -0.425,0 -0.935,-0.416 -1.02,-0.747 l 0,-4.392 c 0,-0.332 -0.256,-0.581 -0.596,-0.581 l -1.404,0 c -0.339,0 -0.594,0.249 -0.594,0.581 l 0.042,4.351 C -3.615,-1.533 -2.083,0 -0.17,0"
         style="fill:#1a171c;fill-opacity:1;fill-rule:evenodd;stroke:none"
         id="path6102" />
    </g>
    <g
       id="g6104"
       transform="matrix(1.25,0,0,-1.25,213.8241,289.76976)">
      <path
         inkscape:connector-curvature="0"
         d="m 0,0 0.298,-0.332 c 0.85,-0.87 0.808,-1.864 0.808,-2.196 L 1.064,-6.963 c 0,-0.331 -0.255,-0.579 -0.553,-0.579 l -1.531,0 c -0.299,0 -0.595,0.248 -0.595,0.579 l 0,4.393 c -0.128,0.788 -0.554,0.953 -1.15,0.912 -0.127,0.497 -0.298,0.912 -0.637,1.326 -0.596,0.581 -0.468,0.374 -0.68,0.581 0.041,0 0.382,0.248 0.807,0.372 0.341,0.084 0.978,0.166 1.362,0.124 C -0.723,0.539 -0.34,0.249 0,0"
         style="fill:#1a171c;fill-opacity:1;fill-rule:evenodd;stroke:none"
         id="path6106" />
    </g>
    <g
       id="g6108"
       transform="matrix(1.25,0,0,-1.25,217.4391,289.14851)">
      <path
         inkscape:connector-curvature="0"
         d="M 0,0 1.532,0 C 1.83,0 2.084,-0.248 2.084,-0.58 l 0,-6.879 c 0,-0.331 -0.254,-0.58 -0.552,-0.58 l -1.532,0 c -0.298,0 -0.553,0.249 -0.553,0.58 l 0,6.879 C -0.553,-0.248 -0.298,0 0,0"
         style="fill:#1a171c;fill-opacity:1;fill-rule:evenodd;stroke:none"
         id="path6110" />
    </g>
    <g
       id="g6112"
       transform="matrix(1.25,0,0,-1.25,228.0191,289.14851)">
      <path
         inkscape:connector-curvature="0"
         d="m 0,0 1.532,0 c 0.339,0 0.595,-0.248 0.595,-0.58 l 0,-5.346 C 2.085,-6.257 2.042,-6.506 1.871,-6.796 1.616,-7.21 1.276,-7.583 0.893,-7.832 0.468,-8.081 0,-8.206 -0.34,-8.246 l -0.808,0 0,2.32 c 0,0 0.552,0.083 0.552,0.621 0.043,0.374 0.043,0.581 0.043,0.623 l 0,4.102 C -0.553,-0.248 -0.297,0 0,0"
         style="fill:#1a171c;fill-opacity:1;fill-rule:evenodd;stroke:none"
         id="path6114" />
    </g>
    <g
       id="g6116"
       transform="matrix(1.25,0,0,-1.25,224.2441,289.25101)">
      <path
         inkscape:connector-curvature="0"
         d="m 0,0 -1.488,0 c -0.341,0 -0.596,-0.249 -0.596,-0.539 l 0,-5.388 c 0.043,-0.332 0.085,-0.58 0.255,-0.829 0.255,-0.414 0.596,-0.828 0.978,-1.035 0.426,-0.291 0.894,-0.415 1.234,-0.415 l 0.808,0 0,2.321 c 0,0 -0.553,0.083 -0.595,0.58 l 0,4.766 C 0.596,-0.249 0.341,0 0,0"
         style="fill:#1a171c;fill-opacity:1;fill-rule:evenodd;stroke:none"
         id="path6118" />
    </g>
    <g
       id="g6120"
       transform="matrix(1.25,0,0,-1.25,205.37035,288.83726)">
      <path
         inkscape:connector-curvature="0"
         d="m 0,0 c 1.957,0 3.488,-1.616 3.488,-3.398 l 0,-4.268 c 0,-0.332 -0.255,-0.58 -0.596,-0.58 l -1.403,0 c -0.341,0 -0.596,0.248 -0.596,0.58 l 0.043,4.31 -0.043,0.041 c -0.084,0.373 -0.595,0.746 -0.978,0.746 -0.382,0 -0.893,-0.414 -0.978,-0.746 l -0.042,-0.083 0.042,-4.31 c 0,-0.331 -0.255,-0.58 -0.595,-0.58 l -1.404,0 c -0.34,0 -0.595,0.249 -0.595,0.58 l 0,4.352 c 0,1.782 1.531,3.315 3.487,3.315"
         style="fill:#1a171c;fill-opacity:1;fill-rule:evenodd;stroke:none"
         id="path6122" />
    </g>
  </g>
</svg>
