<?xml version="1.0" encoding="UTF-8" standalone="no"?>
<!-- Created with Inkscape (http://www.inkscape.org/) -->

<svg
   xmlns:dc="http://purl.org/dc/elements/1.1/"
   xmlns:cc="http://creativecommons.org/ns#"
   xmlns:rdf="http://www.w3.org/1999/02/22-rdf-syntax-ns#"
   xmlns:svg="http://www.w3.org/2000/svg"
   xmlns="http://www.w3.org/2000/svg"
   xmlns:sodipodi="http://sodipodi.sourceforge.net/DTD/sodipodi-0.dtd"
   xmlns:inkscape="http://www.inkscape.org/namespaces/inkscape"
   width="356.33002"
   height="113.30002"
   viewBox="0 0 94.278983 29.977296"
   version="1.1"
   id="svg15308"
   inkscape:version="0.92.0 r15299"
   sodipodi:docname="mulberry.svg">
  <defs
     id="defs15302">
    <style
       id="style15310">.cls-1{fill:#1d1d1b;}</style>
  </defs>
  <sodipodi:namedview
     id="base"
     pagecolor="#ffffff"
     bordercolor="#666666"
     borderopacity="1.0"
     inkscape:pageopacity="0.0"
     inkscape:pageshadow="2"
     inkscape:zoom="2.5315383"
     inkscape:cx="177.16501"
     inkscape:cy="55.650009"
     inkscape:document-units="mm"
     inkscape:current-layer="layer1"
     showgrid="false"
     fit-margin-top="0"
     fit-margin-left="0"
     fit-margin-right="0"
     fit-margin-bottom="0"
     units="px"
     inkscape:window-width="1280"
     inkscape:window-height="744"
     inkscape:window-x="-4"
     inkscape:window-y="-4"
     inkscape:window-maximized="1" />
  <metadata
     id="metadata15305">
    <rdf:RDF>
      <cc:Work
         rdf:about="">
        <dc:format>image/svg+xml</dc:format>
        <dc:type
           rdf:resource="http://purl.org/dc/dcmitype/StillImage" />
        <dc:title></dc:title>
      </cc:Work>
    </rdf:RDF>
  </metadata>
  <g
     inkscape:label="Layer 1"
     inkscape:groupmode="layer"
     id="layer1"
     transform="translate(-10.577473,-324.83606)">
    <path
       id="path15316"
       d="m 68.904869,349.01369 c 2.743729,0 4.36827,-2.57969 4.823354,-3.53484 h -0.415396 c -0.529167,0.66675 -1.621896,1.99761 -3.534833,1.99761 -2.328334,0 -3.243792,-2.11667 -3.243792,-4.36827 0,-2.38125 0.830792,-4.40796 2.328333,-4.40796 1.121834,0 1.664229,1.12183 1.497542,2.49502 l -4.15925,1.32291 -0.04233,0.62442 6.238875,-1.8706 c 0,-1.78859 -1.2065,-3.36815 -3.328459,-3.36815 -2.495021,0 -4.532312,2.61938 -4.532312,5.82083 0,3.07711 1.788583,5.29167 4.368271,5.29167 m 9.482666,-7.56973 c 0,0 0.291042,-1.74625 1.66423,-1.74625 0.997479,0 1.621895,0.99748 1.621895,0.99748 l 0.873125,-2.53735 a 1.5160625,1.5160625 0 0 0 -0.955145,-0.29104 c -2.20398,0 -3.534834,2.74637 -3.534834,2.74637 z m 9.233959,0 c 0,0 0.291041,-1.74625 1.664229,-1.74625 0.997479,0 1.621896,0.99748 1.621896,0.99748 l 0.873125,-2.53735 a 1.5187083,1.5187083 0 0 0 -0.957795,-0.29104 c -2.203979,0 -3.534833,2.74637 -3.534833,2.74637 z m 6.11452,13.10217 c 1.373188,0 2.661709,-0.74877 3.577167,-2.87073 l 1.912938,-4.53231 3.119438,-7.14375 c 0.29104,-0.62442 0.79375,-0.95779 1.53987,-1.32292 l 0.70644,-0.33337 h -4.4106 l 0.58208,0.33337 c 0.66675,0.37571 0.95514,0.79375 0.70643,1.41552 l -3.079742,7.0485 -1.412875,3.36815 c -0.624416,1.53987 -1.288521,2.20398 -2.537354,2.20398 -1.664229,0 -2.828396,-1.24884 -2.828396,-1.24884 l 0.79375,2.78607 a 3.5374792,3.5374792 0 0 0 1.322917,0.29104 m 4.497917,-6.44525 1.2065,-2.11667 -2.495021,-5.99017 c -0.248708,-0.58208 0,-0.95779 0.375708,-1.24883 l 0.529167,-0.4154 h -4.648732 l 0.582083,0.33338 a 2.2912917,2.2912917 0 0 1 1.164167,1.32292 z m -9.567334,0.12435 c -0.529166,-0.37306 -0.955145,-0.83079 -0.955145,-1.41287 v -8.85825 l -3.41048,0.82814 0.706438,0.50006 c 0.500062,0.37571 0.915458,0.8308 0.915458,1.41553 v 6.11452 c 0,0.58208 -0.415396,1.03981 -0.955146,1.41287 l -0.666753,0.50006 h 5.027084 z m -9.191625,0 c -0.529166,-0.37306 -0.957791,-0.83079 -0.957791,-1.41287 v -8.85825 l -3.402542,0.82814 0.706438,0.50006 c 0.500062,0.37571 0.915458,0.8308 0.915458,1.41553 v 6.11452 c 0,0.58208 -0.415396,1.03981 -0.957792,1.41287 l -0.664107,0.50006 h 5.027083 z m -29.987875,0 c -0.529169,-0.37306 -0.955148,-0.83079 -0.955148,-1.41287 v -21.70907 l -3.659188,0.83079 0.748771,0.52917 c 0.664104,0.45773 1.039812,0.91546 1.039812,1.70392 v 18.63196 c 0,0.58208 -0.415395,1.03981 -0.955145,1.41287 l -0.66675,0.50006 h 5.114395 z m 3.577164,-20.04748 v 19.92313 c 0.830792,0.52916 2.203979,0.91546 3.577167,0.91546 2.95275,0 5.114396,-2.95275 5.114396,-6.28121 0,-2.45269 -1.322917,-4.82336 -3.95023,-4.82336 -1.322916,0 -2.413,0.95515 -3.119437,1.6219 v 0.74877 c 0.748771,-0.66675 1.664229,-1.03981 2.38125,-1.03981 1.994958,0 2.619375,2.38125 2.619375,4.20158 0,2.61938 -0.915458,4.90802 -2.995083,4.90802 -1.039813,0 -1.788584,-0.83079 -1.788584,-0.83079 v -22.41815 l -3.6195,0.83079 0.748771,0.52917 c 0.66675,0.45773 1.039813,0.91546 1.039813,1.70392 M 40.004431,340.6846 v 8.20209 l 3.439583,-0.91546 -0.706437,-0.4154 c -0.529167,-0.33337 -0.915458,-0.62442 -0.915458,-1.32292 v -8.28145 l -3.439584,0.83079 0.706438,0.50006 c 0.500062,0.37571 0.915458,0.83079 0.915458,1.41552 m -2.288646,7.112 c -0.997479,0 -1.74625,-0.50006 -1.74625,-1.74625 v -8.11212 l -3.46075,0.82814 0.706438,0.50006 c 0.500062,0.37571 0.915458,0.8308 0.915458,1.41553 v 5.61445 c 0,1.78859 1.248833,2.61938 2.579688,2.61938 1.330854,0 2.619375,-0.83079 3.328458,-1.45521 v -0.62442 a 3.9978542,3.9978542 0 0 1 -2.328333,0.9578 m -8.85825,-0.99748 -0.166688,-16.30363 c 0,-0.70644 0.500063,-1.24883 1.288521,-1.66423 l 1.082146,-0.58208 h -4.323292 l -5.656792,15.875 -5.44777,-15.875 H 11.09341 l 0.997479,0.58208 c 0.748771,0.4154 1.2065,0.95779 1.2065,1.66423 l -0.291041,15.34583 a 2.5585208,2.5585208 0 0 1 -1.082146,1.95528 l -1.082146,0.91545 h 5.405438 l -1.121834,-0.91545 c -0.664104,-0.58209 -1.039812,-1.16417 -1.039812,-1.95528 l 0.248708,-14.09964 6.1595,16.81692 6.072188,-16.80369 0.124354,15.05479 c 0,0.58208 -0.500063,1.03981 -1.164167,1.41287 l -0.915458,0.50007 h 6.281208 l -0.915458,-0.50007 c -0.66675,-0.37306 -1.121834,-0.83079 -1.121834,-1.41287"
       class="cls-1"
       inkscape:connector-curvature="0"
       style="fill:#1d1d1b;stroke-width:0.26458332" />
  </g>
</svg>
