<?xml version="1.0" standalone="no"?>
<!DOCTYPE svg PUBLIC "-//W3C//DTD SVG 20010904//EN"
 "http://www.w3.org/TR/2001/REC-SVG-20010904/DTD/svg10.dtd">
<svg version="1.0" xmlns="http://www.w3.org/2000/svg"
 width="521.000000pt" height="204.000000pt" viewBox="0 0 521.000000 204.000000"
 preserveAspectRatio="xMidYMid meet">

<g transform="translate(0.000000,204.000000) scale(0.100000,-0.100000)"
fill="#000000" stroke="none">
<path d="M1160 1895 c-80 -36 -124 -104 -142 -219 -28 -183 67 -335 210 -336
65 0 107 17 149 61 45 48 65 102 71 195 11 180 -69 300 -208 311 -27 2 -59 -3
-80 -12z m150 -74 c14 -10 36 -38 50 -62 22 -38 25 -56 25 -139 0 -86 -3 -100
-28 -142 -35 -61 -74 -82 -139 -76 -58 6 -92 33 -121 98 -30 66 -28 193 4 258
42 84 139 113 209 63z"/>
<path d="M3275 1895 c-53 -19 -111 -85 -130 -148 -22 -74 -19 -194 5 -260 24
-63 78 -121 127 -138 20 -6 59 -9 89 -7 71 6 121 41 159 109 25 46 30 68 33
145 6 122 -14 189 -71 248 -60 63 -130 80 -212 51z m118 -59 c43 -18 84 -67
98 -119 17 -62 8 -184 -17 -232 -57 -109 -190 -114 -254 -9 -28 45 -39 173
-21 241 14 51 54 101 96 119 39 17 58 17 98 0z"/>
<path d="M142 1868 l3 -33 73 -3 72 -3 0 -239 0 -240 30 0 30 0 0 240 0 239
73 3 72 3 3 33 3 32 -181 0 -181 0 3 -32z"/>
<path d="M570 1625 l0 -275 30 0 30 0 0 130 0 131 118 -3 117 -3 3 -127 3
-128 29 0 30 0 -2 273 -3 272 -27 3 -28 3 0 -115 0 -116 -120 0 -120 0 0 115
0 115 -30 0 -30 0 0 -275z"/>
<path d="M1530 1625 l0 -275 30 0 30 0 0 218 c0 124 4 211 9 202 7 -13 78
-252 111 -377 10 -38 14 -43 40 -43 25 0 31 5 39 38 6 20 35 120 65 222 l55
185 0 -222 1 -223 30 0 30 0 0 276 0 275 -42 -3 -41 -3 -63 -223 c-34 -123
-65 -226 -68 -229 -7 -7 -5 -12 -66 207 -76 276 -64 250 -116 250 l-44 0 0
-275z"/>
<path d="M2250 1625 l0 -275 118 0 c135 0 174 13 204 70 36 69 15 179 -41 209
-20 11 -20 12 4 37 47 51 45 143 -5 192 -35 35 -64 42 -186 42 l-94 0 0 -275z
m240 185 c13 -13 20 -33 20 -60 0 -64 -24 -80 -120 -80 l-80 0 0 80 0 80 80 0
c67 0 83 -3 100 -20z m-7 -221 c14 -6 30 -22 36 -36 23 -51 6 -113 -36 -132
-13 -6 -57 -11 -98 -11 l-75 0 0 95 0 95 75 0 c41 0 85 -5 98 -11z"/>
<path d="M2680 1626 l0 -276 30 0 30 0 0 120 0 120 59 0 c56 0 61 -2 89 -36
16 -19 49 -73 73 -120 43 -83 44 -84 82 -84 l38 0 -48 92 c-26 51 -62 106 -78
122 l-30 30 39 21 c60 30 81 65 81 134 0 63 -18 99 -62 128 -22 15 -54 19
-165 21 l-138 4 0 -276z m255 204 c31 -12 55 -64 48 -102 -10 -54 -43 -70
-148 -76 l-95 -5 0 97 0 96 84 0 c47 0 96 -4 111 -10z"/>
<path d="M3610 1888 c0 -7 26 -131 57 -275 l58 -263 32 0 31 0 26 113 c14 61
39 168 55 237 l28 125 11 -40 c6 -22 27 -112 47 -200 56 -248 51 -235 85 -235
17 0 30 2 30 4 0 2 27 121 60 265 33 144 60 266 60 272 0 6 -12 9 -27 7 -28
-3 -28 -4 -71 -208 -57 -277 -53 -265 -64 -205 -4 28 -27 132 -50 233 l-42
182 -36 0 -37 0 -52 -227 c-29 -125 -54 -229 -55 -230 -2 -2 -17 75 -35 169
-56 296 -53 283 -84 286 -17 2 -27 -1 -27 -10z"/>
<path d="M4257 1893 c-4 -3 -7 -127 -7 -275 l0 -268 30 0 30 0 2 213 3 212
116 -210 c110 -198 118 -210 148 -213 l31 -3 0 275 0 276 -25 0 -25 0 -2 -217
-3 -218 -99 180 c-136 246 -142 255 -169 255 -13 0 -27 -3 -30 -7z"/>
<path d="M4720 1625 l0 -275 170 0 170 0 0 30 0 30 -140 0 -140 0 0 95 0 95
130 0 130 0 0 30 0 29 -127 3 -128 3 -3 82 -3 82 133 3 133 3 3 33 3 32 -165
0 -166 0 0 -275z"/>
<path d="M2220 555 l0 -446 123 3 122 3 3 443 2 442 -125 0 -125 0 0 -445z"/>
<path d="M2730 555 l0 -445 125 0 125 0 0 445 0 445 -125 0 -125 0 0 -445z"/>
</g>
</svg>
